<mxfile host="65bd71144e" scale="10" border="0">
    <diagram id="VjCrv_OxM4xG9s1wZ-JJ" name="Page-1">
        <mxGraphModel dx="1084" dy="2139" grid="1" gridSize="10" guides="1" tooltips="1" connect="1" arrows="1" fold="1" page="1" pageScale="1" pageWidth="850" pageHeight="1100" math="1" shadow="0">
            <root>
                <mxCell id="0"/>
                <mxCell id="1" parent="0"/>
                <mxCell id="290" value="" style="rounded=1;whiteSpace=wrap;html=1;fontSize=14;fillColor=#f5f5f5;strokeColor=#666666;fontColor=#333333;" parent="1" vertex="1">
                    <mxGeometry x="255" y="5" width="165" height="156" as="geometry"/>
                </mxCell>
                <mxCell id="54" value="" style="rounded=1;whiteSpace=wrap;html=1;fillColor=none;" parent="1" vertex="1">
                    <mxGeometry x="40" y="10" width="130" height="320" as="geometry"/>
                </mxCell>
                <mxCell id="4" value="" style="group;fillColor=#d5e8d4;strokeColor=#82b366;" parent="1" vertex="1" connectable="0">
                    <mxGeometry x="69.36574471776845" y="59.36574471776845" width="51.2685105644631" height="51.2685105644631" as="geometry"/>
                </mxCell>
                <mxCell id="2" value="" style="rounded=0;whiteSpace=wrap;html=1;fontStyle=1;fillColor=#d5e8d4;strokeColor=#82b366;" parent="4" vertex="1">
                    <mxGeometry x="0.6342552822315497" y="0.6342552822315497" width="50" height="50" as="geometry"/>
                </mxCell>
                <mxCell id="3" value="" style="shape=image;verticalLabelPosition=bottom;labelBackgroundColor=default;verticalAlign=top;aspect=fixed;imageAspect=0;image=data:image/png,iVBORw0KGgoAAAANSUhEUgAAAJYAAACWCAMAAAAL34HQAAAAAXNSR0IArs4c6QAAAARnQU1BAACxjwv8YQUAAAAzUExURQAAAAAAAAAAAAAAAAAAAAAAAAAAAAAAAAAAAAAAAAAAAAAAAAAAAAAAAAAAAAAAAAAAAKMFRskAAAAQdFJOUwAQIDBAUGBwgI+fr7/P3+8jGoKKAAAACXBIWXMAABcRAAAXEQHKJvM/AAAFaUlEQVR4Xu2c67ajIAyFq2LVqqXv/7SDJKhcgpZbZ9bw/WrVo7sQkhDwPCqVSqVSqVRKwNa3ZB4ZHnHQdM8JrlsGPJQXxj8Hc4tHdZrpfFERXTM+DFl6PH7QaqI+H47Hs7Lgw3ZGPKHodFGCBs/kZMBnHei6tE6WzHgmLy982sGCZzZ6S9Xqtr/kdP3GOL/xuZ/PYV/NfpDP07Bd15XoQo1eNdwbDzweIx5ZhuJqTjBU8cTvDXbh9EtRgg5kKB+AjTXh19+B/qKDb2BZ7x+3laCXQpQnhy+mJ0vOE+PfxuQe6NBAL/kZu9R1YXO61RrZybrrdAeRSZ4D1/WUn1f52UANUeAYuiEcnknijLnwPL6s6/wCQ4OW02nkmQNP8nGJeS+nzdjByNVF2L07yqMEYYRlp0lAx51xtZYhi+PIDaPVe9ElqzESHYErNOuyeFRjCfqnZJV3c8myA7fTcFDWIO/WR7XVCWgShywYhwbc9hAoK7GfpWTZ9i6xXURRWa2VXCGWKykqy9mFG5bnLSlLpTEOzKFWUhaGaRem7yomq2GTEZs0Zr29CslqvJqA+eSeyshi16I2jj8oIashR6DJqhqshCz4dgsVk/PIgubB4XW7rTY4KMEpkvycDlACqQERcCggEEH6E5eU2mAKun0kAw6FTB7htzjT6QjQcW6ZgZ6U30D+GEgoUxdJMH0Wt/UEHAoRt9G0YrM/C0yfp/7rxhLNxUb8LclrN57wd58MhS5Im6OIm1e4QX8YwymkpkPVjILJokq0173wTMDzlcEHYzp7H07UVVLBgshg65XKf04/fgv+YVbs9a9LMkRokyYkZNtLjqkJSLcwP83JsQD2FcmzUoPAbDC3dZF9uEio4ZC7F8n5NExSydOZYzU5Di9kxSxa3IC0+AtZmV3E3yar6fphHJ+hsqZhGJ8MLkoHe12FnAtZyDImzJ3ZjYBzT5Yg1eL6vdLfbVmJJrGOFTAX92Ulsf/m5hzsG1kJdB09yLfFb9Ly/bL4Bn4WOFbQvkMVJDluTrGXWhG/LKgC7ntfYouVKo/hqtnJDMIva9+ypC6Im/ljwvDeG52sj/hlHYkNGkVUSqEa6zBRspzkl3VamMIhFJMYYpedKkDmFoQdvyz7DjHNBU85j5tAWec5GXZjxGCEPtQyXnnEgV/W2cLxl4UbPRqS5vwox+WXpVlSbIkenZbW3FRm45el/TIY3uHGBVagL4hQyYRflpYzYy/CXwQALl0vIVAh0i9LTxpki0c4+i1YzPqvoh7sl6UPu80n73EjBPY0kyMq+fLLMjqsHYbEM7QwWfJkTqhptVdW6tVNG2rp9ceyqITLKyv1oqsNlXB5ZZ13iOeBitVeWZkWoc4Q0ccrK3fVTUB4CK+sGNd5E8JD+GThDo2sEDbvk5Xd4tsxLIMwNnOlRX+pSMcvS7iubGVKbzXiSlaWZX2Jaz/uzqWs+Bm+G//K/rWsTMV5f+nmhqwsVXCcBvGxa3vHcKRk8UFcj4ddG9ZjwYxGThYcy2SELNyBDsdzrGXAndE+bF2ELPRX6IMzGD2EaDUNsra8uWWpyzHvyOBUQccedE1dbbNhyDoSGmjdDPtZ5H1Pg6mjwtDOeVcNDOP0q9atvK9mHVRajyzna6EZ06eDDlneaGS8BFJSlmgwoif5C4bATllZwsRGK4vmS2+IKi9LwKYjLvF1dr7G+QNZGy1jfc8Y+Z7rj2RdUWV9Q5X1Dclldc9hA2etcbJWeashwaYItXcbiZOliH6L35xXpJEVnT6bWUIiWbHps1FxCL6dUVCJrlrq07DgPE5/VSKqKC9pxmVVxPyPlW467jMXqHdVKpVKpVKpVP49Ho8/AAxE2/t6xsEAAAAASUVORK5CYII=;rotation=20;" parent="4" vertex="1">
                    <mxGeometry x="5.63425528223155" y="5.63425528223155" width="40" height="40" as="geometry"/>
                </mxCell>
                <mxCell id="11" value="" style="group;fillColor=#d5e8d4;strokeColor=#82b366;" parent="1" vertex="1" connectable="0">
                    <mxGeometry x="79.99574471776845" y="69.99574471776845" width="51.2685105644631" height="51.2685105644631" as="geometry"/>
                </mxCell>
                <mxCell id="12" value="" style="rounded=0;whiteSpace=wrap;html=1;fontStyle=1;fillColor=#d5e8d4;strokeColor=#82b366;" parent="11" vertex="1">
                    <mxGeometry x="0.6342552822315497" y="0.6342552822315497" width="50" height="50" as="geometry"/>
                </mxCell>
                <mxCell id="13" value="" style="shape=image;verticalLabelPosition=bottom;labelBackgroundColor=default;verticalAlign=top;aspect=fixed;imageAspect=0;image=data:image/png,iVBORw0KGgoAAAANSUhEUgAAAJYAAACWCAMAAAAL34HQAAAAAXNSR0IArs4c6QAAAARnQU1BAACxjwv8YQUAAAAzUExURQAAAAAAAAAAAAAAAAAAAAAAAAAAAAAAAAAAAAAAAAAAAAAAAAAAAAAAAAAAAAAAAAAAAKMFRskAAAAQdFJOUwAQIDBAUGBwgI+fr7/P3+8jGoKKAAAACXBIWXMAABcRAAAXEQHKJvM/AAAFaUlEQVR4Xu2c67ajIAyFq2LVqqXv/7SDJKhcgpZbZ9bw/WrVo7sQkhDwPCqVSqVSqVRKwNa3ZB4ZHnHQdM8JrlsGPJQXxj8Hc4tHdZrpfFERXTM+DFl6PH7QaqI+H47Hs7Lgw3ZGPKHodFGCBs/kZMBnHei6tE6WzHgmLy982sGCZzZ6S9Xqtr/kdP3GOL/xuZ/PYV/NfpDP07Bd15XoQo1eNdwbDzweIx5ZhuJqTjBU8cTvDXbh9EtRgg5kKB+AjTXh19+B/qKDb2BZ7x+3laCXQpQnhy+mJ0vOE+PfxuQe6NBAL/kZu9R1YXO61RrZybrrdAeRSZ4D1/WUn1f52UANUeAYuiEcnknijLnwPL6s6/wCQ4OW02nkmQNP8nGJeS+nzdjByNVF2L07yqMEYYRlp0lAx51xtZYhi+PIDaPVe9ElqzESHYErNOuyeFRjCfqnZJV3c8myA7fTcFDWIO/WR7XVCWgShywYhwbc9hAoK7GfpWTZ9i6xXURRWa2VXCGWKykqy9mFG5bnLSlLpTEOzKFWUhaGaRem7yomq2GTEZs0Zr29CslqvJqA+eSeyshi16I2jj8oIashR6DJqhqshCz4dgsVk/PIgubB4XW7rTY4KMEpkvycDlACqQERcCggEEH6E5eU2mAKun0kAw6FTB7htzjT6QjQcW6ZgZ6U30D+GEgoUxdJMH0Wt/UEHAoRt9G0YrM/C0yfp/7rxhLNxUb8LclrN57wd58MhS5Im6OIm1e4QX8YwymkpkPVjILJokq0173wTMDzlcEHYzp7H07UVVLBgshg65XKf04/fgv+YVbs9a9LMkRokyYkZNtLjqkJSLcwP83JsQD2FcmzUoPAbDC3dZF9uEio4ZC7F8n5NExSydOZYzU5Di9kxSxa3IC0+AtZmV3E3yar6fphHJ+hsqZhGJ8MLkoHe12FnAtZyDImzJ3ZjYBzT5Yg1eL6vdLfbVmJJrGOFTAX92Ulsf/m5hzsG1kJdB09yLfFb9Ly/bL4Bn4WOFbQvkMVJDluTrGXWhG/LKgC7ntfYouVKo/hqtnJDMIva9+ypC6Im/ljwvDeG52sj/hlHYkNGkVUSqEa6zBRspzkl3VamMIhFJMYYpedKkDmFoQdvyz7DjHNBU85j5tAWec5GXZjxGCEPtQyXnnEgV/W2cLxl4UbPRqS5vwox+WXpVlSbIkenZbW3FRm45el/TIY3uHGBVagL4hQyYRflpYzYy/CXwQALl0vIVAh0i9LTxpki0c4+i1YzPqvoh7sl6UPu80n73EjBPY0kyMq+fLLMjqsHYbEM7QwWfJkTqhptVdW6tVNG2rp9ceyqITLKyv1oqsNlXB5ZZ13iOeBitVeWZkWoc4Q0ccrK3fVTUB4CK+sGNd5E8JD+GThDo2sEDbvk5Xd4tsxLIMwNnOlRX+pSMcvS7iubGVKbzXiSlaWZX2Jaz/uzqWs+Bm+G//K/rWsTMV5f+nmhqwsVXCcBvGxa3vHcKRk8UFcj4ddG9ZjwYxGThYcy2SELNyBDsdzrGXAndE+bF2ELPRX6IMzGD2EaDUNsra8uWWpyzHvyOBUQccedE1dbbNhyDoSGmjdDPtZ5H1Pg6mjwtDOeVcNDOP0q9atvK9mHVRajyzna6EZ06eDDlneaGS8BFJSlmgwoif5C4bATllZwsRGK4vmS2+IKi9LwKYjLvF1dr7G+QNZGy1jfc8Y+Z7rj2RdUWV9Q5X1Dclldc9hA2etcbJWeashwaYItXcbiZOliH6L35xXpJEVnT6bWUIiWbHps1FxCL6dUVCJrlrq07DgPE5/VSKqKC9pxmVVxPyPlW467jMXqHdVKpVKpVKpVP49Ho8/AAxE2/t6xsEAAAAASUVORK5CYII=;rotation=20;" parent="11" vertex="1">
                    <mxGeometry x="5.63425528223155" y="5.63425528223155" width="40" height="40" as="geometry"/>
                </mxCell>
                <mxCell id="20" value="Images from &lt;b style=&quot;font-size: 14px;&quot;&gt;&lt;font color=&quot;#009900&quot; style=&quot;font-size: 14px;&quot;&gt;inlier &lt;/font&gt;&lt;/b&gt;and &lt;b style=&quot;font-size: 14px;&quot;&gt;&lt;font color=&quot;#cc0000&quot; style=&quot;font-size: 14px;&quot;&gt;outlier &lt;/font&gt;&lt;/b&gt;classes" style="text;html=1;strokeColor=none;fillColor=none;align=center;verticalAlign=middle;whiteSpace=wrap;rounded=0;fontSize=14;" parent="1" vertex="1">
                    <mxGeometry x="48.75999999999999" y="20" width="113.74" height="30" as="geometry"/>
                </mxCell>
                <mxCell id="21" value="Outlier images are &lt;b style=&quot;font-size: 15px;&quot;&gt;unknown&lt;/b&gt;" style="text;html=1;strokeColor=none;fillColor=none;align=center;verticalAlign=middle;whiteSpace=wrap;rounded=0;fontColor=#080808;fontSize=15;" parent="1" vertex="1">
                    <mxGeometry x="50.629999999999995" y="140" width="110" height="30" as="geometry"/>
                </mxCell>
                <mxCell id="22" value="Unique DNA barcodes" style="text;html=1;strokeColor=none;fillColor=none;align=center;verticalAlign=middle;whiteSpace=wrap;rounded=0;fontSize=14;" parent="1" vertex="1">
                    <mxGeometry x="46.889999999999986" y="182.5" width="113.74" height="30" as="geometry"/>
                </mxCell>
                <mxCell id="25" value="CNN" style="shape=trapezoid;perimeter=trapezoidPerimeter;whiteSpace=wrap;html=1;fixedSize=1;rotation=0;direction=south;fillColor=#dae8fc;strokeColor=#6c8ebf;" parent="1" vertex="1">
                    <mxGeometry x="190" y="40" width="41.87" height="100" as="geometry"/>
                </mxCell>
                <mxCell id="48" value="OOD detection methods used to order samples based on score `m`" style="text;html=1;strokeColor=none;fillColor=none;align=center;verticalAlign=middle;whiteSpace=wrap;rounded=0;fontColor=#080808;fontStyle=1" parent="1" vertex="1">
                    <mxGeometry x="263.74" y="10" width="145" height="40" as="geometry"/>
                </mxCell>
                <mxCell id="53" value="" style="endArrow=classic;html=1;fontColor=#080808;strokeWidth=3;" parent="1" edge="1">
                    <mxGeometry width="50" height="50" relative="1" as="geometry">
                        <mxPoint x="170" y="95.2100000000001" as="sourcePoint"/>
                        <mxPoint x="190" y="94.78" as="targetPoint"/>
                        <Array as="points">
                            <mxPoint x="190" y="95.20999999999998"/>
                        </Array>
                    </mxGeometry>
                </mxCell>
                <mxCell id="59" value="" style="shape=cylinder3;whiteSpace=wrap;html=1;boundedLbl=1;backgroundOutline=1;size=15;fillColor=none;" parent="1" vertex="1">
                    <mxGeometry x="81.76" y="-80" width="48.87" height="51.19" as="geometry"/>
                </mxCell>
                <mxCell id="62" value="" style="shape=image;verticalLabelPosition=bottom;labelBackgroundColor=default;verticalAlign=top;aspect=fixed;imageAspect=0;image=data:image/png,iVBORw0KGgoAAAANSUhEUgAAAJYAAACWCAMAAAAL34HQAAAAAXNSR0IArs4c6QAAAARnQU1BAACxjwv8YQUAAAAzUExURQAAAAAAAAAAAAAAAAAAAAAAAAAAAAAAAAAAAAAAAAAAAAAAAAAAAAAAAAAAAAAAAAAAAKMFRskAAAAQdFJOUwAQIDBAUGBwgI+fr7/P3+8jGoKKAAAACXBIWXMAABcRAAAXEQHKJvM/AAAFaUlEQVR4Xu2c67ajIAyFq2LVqqXv/7SDJKhcgpZbZ9bw/WrVo7sQkhDwPCqVSqVSqVRKwNa3ZB4ZHnHQdM8JrlsGPJQXxj8Hc4tHdZrpfFERXTM+DFl6PH7QaqI+H47Hs7Lgw3ZGPKHodFGCBs/kZMBnHei6tE6WzHgmLy982sGCZzZ6S9Xqtr/kdP3GOL/xuZ/PYV/NfpDP07Bd15XoQo1eNdwbDzweIx5ZhuJqTjBU8cTvDXbh9EtRgg5kKB+AjTXh19+B/qKDb2BZ7x+3laCXQpQnhy+mJ0vOE+PfxuQe6NBAL/kZu9R1YXO61RrZybrrdAeRSZ4D1/WUn1f52UANUeAYuiEcnknijLnwPL6s6/wCQ4OW02nkmQNP8nGJeS+nzdjByNVF2L07yqMEYYRlp0lAx51xtZYhi+PIDaPVe9ElqzESHYErNOuyeFRjCfqnZJV3c8myA7fTcFDWIO/WR7XVCWgShywYhwbc9hAoK7GfpWTZ9i6xXURRWa2VXCGWKykqy9mFG5bnLSlLpTEOzKFWUhaGaRem7yomq2GTEZs0Zr29CslqvJqA+eSeyshi16I2jj8oIashR6DJqhqshCz4dgsVk/PIgubB4XW7rTY4KMEpkvycDlACqQERcCggEEH6E5eU2mAKun0kAw6FTB7htzjT6QjQcW6ZgZ6U30D+GEgoUxdJMH0Wt/UEHAoRt9G0YrM/C0yfp/7rxhLNxUb8LclrN57wd58MhS5Im6OIm1e4QX8YwymkpkPVjILJokq0173wTMDzlcEHYzp7H07UVVLBgshg65XKf04/fgv+YVbs9a9LMkRokyYkZNtLjqkJSLcwP83JsQD2FcmzUoPAbDC3dZF9uEio4ZC7F8n5NExSydOZYzU5Di9kxSxa3IC0+AtZmV3E3yar6fphHJ+hsqZhGJ8MLkoHe12FnAtZyDImzJ3ZjYBzT5Yg1eL6vdLfbVmJJrGOFTAX92Ulsf/m5hzsG1kJdB09yLfFb9Ly/bL4Bn4WOFbQvkMVJDluTrGXWhG/LKgC7ntfYouVKo/hqtnJDMIva9+ypC6Im/ljwvDeG52sj/hlHYkNGkVUSqEa6zBRspzkl3VamMIhFJMYYpedKkDmFoQdvyz7DjHNBU85j5tAWec5GXZjxGCEPtQyXnnEgV/W2cLxl4UbPRqS5vwox+WXpVlSbIkenZbW3FRm45el/TIY3uHGBVagL4hQyYRflpYzYy/CXwQALl0vIVAh0i9LTxpki0c4+i1YzPqvoh7sl6UPu80n73EjBPY0kyMq+fLLMjqsHYbEM7QwWfJkTqhptVdW6tVNG2rp9ceyqITLKyv1oqsNlXB5ZZ13iOeBitVeWZkWoc4Q0ccrK3fVTUB4CK+sGNd5E8JD+GThDo2sEDbvk5Xd4tsxLIMwNnOlRX+pSMcvS7iubGVKbzXiSlaWZX2Jaz/uzqWs+Bm+G//K/rWsTMV5f+nmhqwsVXCcBvGxa3vHcKRk8UFcj4ddG9ZjwYxGThYcy2SELNyBDsdzrGXAndE+bF2ELPRX6IMzGD2EaDUNsra8uWWpyzHvyOBUQccedE1dbbNhyDoSGmjdDPtZ5H1Pg6mjwtDOeVcNDOP0q9atvK9mHVRajyzna6EZ06eDDlneaGS8BFJSlmgwoif5C4bATllZwsRGK4vmS2+IKi9LwKYjLvF1dr7G+QNZGy1jfc8Y+Z7rj2RdUWV9Q5X1Dclldc9hA2etcbJWeashwaYItXcbiZOliH6L35xXpJEVnT6bWUIiWbHps1FxCL6dUVCJrlrq07DgPE5/VSKqKC9pxmVVxPyPlW467jMXqHdVKpVKpVKpVP49Ho8/AAxE2/t6xsEAAAAASUVORK5CYII=;rotation=20;" parent="1" vertex="1">
                    <mxGeometry x="90.63000000000001" y="-72" width="16" height="16" as="geometry"/>
                </mxCell>
                <mxCell id="63" value="" style="shape=image;verticalLabelPosition=bottom;labelBackgroundColor=default;verticalAlign=top;aspect=fixed;imageAspect=0;image=data:image/png,iVBORw0KGgoAAAANSUhEUgAAAJYAAACWCAMAAAAL34HQAAAAAXNSR0IArs4c6QAAAARnQU1BAACxjwv8YQUAAAAzUExURQAAAAAAAAAAAAAAAAAAAAAAAAAAAAAAAAAAAAAAAAAAAAAAAAAAAAAAAAAAAAAAAAAAAKMFRskAAAAQdFJOUwAQIDBAUGBwgI+fr7/P3+8jGoKKAAAACXBIWXMAABcRAAAXEQHKJvM/AAAFaUlEQVR4Xu2c67ajIAyFq2LVqqXv/7SDJKhcgpZbZ9bw/WrVo7sQkhDwPCqVSqVSqVRKwNa3ZB4ZHnHQdM8JrlsGPJQXxj8Hc4tHdZrpfFERXTM+DFl6PH7QaqI+H47Hs7Lgw3ZGPKHodFGCBs/kZMBnHei6tE6WzHgmLy982sGCZzZ6S9Xqtr/kdP3GOL/xuZ/PYV/NfpDP07Bd15XoQo1eNdwbDzweIx5ZhuJqTjBU8cTvDXbh9EtRgg5kKB+AjTXh19+B/qKDb2BZ7x+3laCXQpQnhy+mJ0vOE+PfxuQe6NBAL/kZu9R1YXO61RrZybrrdAeRSZ4D1/WUn1f52UANUeAYuiEcnknijLnwPL6s6/wCQ4OW02nkmQNP8nGJeS+nzdjByNVF2L07yqMEYYRlp0lAx51xtZYhi+PIDaPVe9ElqzESHYErNOuyeFRjCfqnZJV3c8myA7fTcFDWIO/WR7XVCWgShywYhwbc9hAoK7GfpWTZ9i6xXURRWa2VXCGWKykqy9mFG5bnLSlLpTEOzKFWUhaGaRem7yomq2GTEZs0Zr29CslqvJqA+eSeyshi16I2jj8oIashR6DJqhqshCz4dgsVk/PIgubB4XW7rTY4KMEpkvycDlACqQERcCggEEH6E5eU2mAKun0kAw6FTB7htzjT6QjQcW6ZgZ6U30D+GEgoUxdJMH0Wt/UEHAoRt9G0YrM/C0yfp/7rxhLNxUb8LclrN57wd58MhS5Im6OIm1e4QX8YwymkpkPVjILJokq0173wTMDzlcEHYzp7H07UVVLBgshg65XKf04/fgv+YVbs9a9LMkRokyYkZNtLjqkJSLcwP83JsQD2FcmzUoPAbDC3dZF9uEio4ZC7F8n5NExSydOZYzU5Di9kxSxa3IC0+AtZmV3E3yar6fphHJ+hsqZhGJ8MLkoHe12FnAtZyDImzJ3ZjYBzT5Yg1eL6vdLfbVmJJrGOFTAX92Ulsf/m5hzsG1kJdB09yLfFb9Ly/bL4Bn4WOFbQvkMVJDluTrGXWhG/LKgC7ntfYouVKo/hqtnJDMIva9+ypC6Im/ljwvDeG52sj/hlHYkNGkVUSqEa6zBRspzkl3VamMIhFJMYYpedKkDmFoQdvyz7DjHNBU85j5tAWec5GXZjxGCEPtQyXnnEgV/W2cLxl4UbPRqS5vwox+WXpVlSbIkenZbW3FRm45el/TIY3uHGBVagL4hQyYRflpYzYy/CXwQALl0vIVAh0i9LTxpki0c4+i1YzPqvoh7sl6UPu80n73EjBPY0kyMq+fLLMjqsHYbEM7QwWfJkTqhptVdW6tVNG2rp9ceyqITLKyv1oqsNlXB5ZZ13iOeBitVeWZkWoc4Q0ccrK3fVTUB4CK+sGNd5E8JD+GThDo2sEDbvk5Xd4tsxLIMwNnOlRX+pSMcvS7iubGVKbzXiSlaWZX2Jaz/uzqWs+Bm+G//K/rWsTMV5f+nmhqwsVXCcBvGxa3vHcKRk8UFcj4ddG9ZjwYxGThYcy2SELNyBDsdzrGXAndE+bF2ELPRX6IMzGD2EaDUNsra8uWWpyzHvyOBUQccedE1dbbNhyDoSGmjdDPtZ5H1Pg6mjwtDOeVcNDOP0q9atvK9mHVRajyzna6EZ06eDDlneaGS8BFJSlmgwoif5C4bATllZwsRGK4vmS2+IKi9LwKYjLvF1dr7G+QNZGy1jfc8Y+Z7rj2RdUWV9Q5X1Dclldc9hA2etcbJWeashwaYItXcbiZOliH6L35xXpJEVnT6bWUIiWbHps1FxCL6dUVCJrlrq07DgPE5/VSKqKC9pxmVVxPyPlW467jMXqHdVKpVKpVKpVP49Ho8/AAxE2/t6xsEAAAAASUVORK5CYII=;rotation=-30;" parent="1" vertex="1">
                    <mxGeometry x="106.63000000000001" y="-72" width="16" height="16" as="geometry"/>
                </mxCell>
                <mxCell id="64" value="" style="shape=image;verticalLabelPosition=bottom;labelBackgroundColor=default;verticalAlign=top;aspect=fixed;imageAspect=0;image=data:image/png,iVBORw0KGgoAAAANSUhEUgAAAJYAAACWCAMAAAAL34HQAAAAAXNSR0IArs4c6QAAAARnQU1BAACxjwv8YQUAAAAzUExURQAAAAAAAAAAAAAAAAAAAAAAAAAAAAAAAAAAAAAAAAAAAAAAAAAAAAAAAAAAAAAAAAAAAKMFRskAAAAQdFJOUwAQIDBAUGBwgI+fr7/P3+8jGoKKAAAACXBIWXMAABcRAAAXEQHKJvM/AAAFaUlEQVR4Xu2c67ajIAyFq2LVqqXv/7SDJKhcgpZbZ9bw/WrVo7sQkhDwPCqVSqVSqVRKwNa3ZB4ZHnHQdM8JrlsGPJQXxj8Hc4tHdZrpfFERXTM+DFl6PH7QaqI+H47Hs7Lgw3ZGPKHodFGCBs/kZMBnHei6tE6WzHgmLy982sGCZzZ6S9Xqtr/kdP3GOL/xuZ/PYV/NfpDP07Bd15XoQo1eNdwbDzweIx5ZhuJqTjBU8cTvDXbh9EtRgg5kKB+AjTXh19+B/qKDb2BZ7x+3laCXQpQnhy+mJ0vOE+PfxuQe6NBAL/kZu9R1YXO61RrZybrrdAeRSZ4D1/WUn1f52UANUeAYuiEcnknijLnwPL6s6/wCQ4OW02nkmQNP8nGJeS+nzdjByNVF2L07yqMEYYRlp0lAx51xtZYhi+PIDaPVe9ElqzESHYErNOuyeFRjCfqnZJV3c8myA7fTcFDWIO/WR7XVCWgShywYhwbc9hAoK7GfpWTZ9i6xXURRWa2VXCGWKykqy9mFG5bnLSlLpTEOzKFWUhaGaRem7yomq2GTEZs0Zr29CslqvJqA+eSeyshi16I2jj8oIashR6DJqhqshCz4dgsVk/PIgubB4XW7rTY4KMEpkvycDlACqQERcCggEEH6E5eU2mAKun0kAw6FTB7htzjT6QjQcW6ZgZ6U30D+GEgoUxdJMH0Wt/UEHAoRt9G0YrM/C0yfp/7rxhLNxUb8LclrN57wd58MhS5Im6OIm1e4QX8YwymkpkPVjILJokq0173wTMDzlcEHYzp7H07UVVLBgshg65XKf04/fgv+YVbs9a9LMkRokyYkZNtLjqkJSLcwP83JsQD2FcmzUoPAbDC3dZF9uEio4ZC7F8n5NExSydOZYzU5Di9kxSxa3IC0+AtZmV3E3yar6fphHJ+hsqZhGJ8MLkoHe12FnAtZyDImzJ3ZjYBzT5Yg1eL6vdLfbVmJJrGOFTAX92Ulsf/m5hzsG1kJdB09yLfFb9Ly/bL4Bn4WOFbQvkMVJDluTrGXWhG/LKgC7ntfYouVKo/hqtnJDMIva9+ypC6Im/ljwvDeG52sj/hlHYkNGkVUSqEa6zBRspzkl3VamMIhFJMYYpedKkDmFoQdvyz7DjHNBU85j5tAWec5GXZjxGCEPtQyXnnEgV/W2cLxl4UbPRqS5vwox+WXpVlSbIkenZbW3FRm45el/TIY3uHGBVagL4hQyYRflpYzYy/CXwQALl0vIVAh0i9LTxpki0c4+i1YzPqvoh7sl6UPu80n73EjBPY0kyMq+fLLMjqsHYbEM7QwWfJkTqhptVdW6tVNG2rp9ceyqITLKyv1oqsNlXB5ZZ13iOeBitVeWZkWoc4Q0ccrK3fVTUB4CK+sGNd5E8JD+GThDo2sEDbvk5Xd4tsxLIMwNnOlRX+pSMcvS7iubGVKbzXiSlaWZX2Jaz/uzqWs+Bm+G//K/rWsTMV5f+nmhqwsVXCcBvGxa3vHcKRk8UFcj4ddG9ZjwYxGThYcy2SELNyBDsdzrGXAndE+bF2ELPRX6IMzGD2EaDUNsra8uWWpyzHvyOBUQccedE1dbbNhyDoSGmjdDPtZ5H1Pg6mjwtDOeVcNDOP0q9atvK9mHVRajyzna6EZ06eDDlneaGS8BFJSlmgwoif5C4bATllZwsRGK4vmS2+IKi9LwKYjLvF1dr7G+QNZGy1jfc8Y+Z7rj2RdUWV9Q5X1Dclldc9hA2etcbJWeashwaYItXcbiZOliH6L35xXpJEVnT6bWUIiWbHps1FxCL6dUVCJrlrq07DgPE5/VSKqKC9pxmVVxPyPlW467jMXqHdVKpVKpVKpVP49Ho8/AAxE2/t6xsEAAAAASUVORK5CYII=;rotation=-30;direction=south;" parent="1" vertex="1">
                    <mxGeometry x="97.76000000000002" y="-49.00000000000001" width="16" height="16" as="geometry"/>
                </mxCell>
                <mxCell id="65" value="Sample" style="text;html=1;strokeColor=none;fillColor=none;align=center;verticalAlign=middle;whiteSpace=wrap;rounded=0;fontColor=#080808;fontStyle=1;fontSize=14;" parent="1" vertex="1">
                    <mxGeometry x="78.69000000000001" y="-28.810000000000002" width="55" height="19.37" as="geometry"/>
                </mxCell>
                <mxCell id="15" value="" style="rounded=0;whiteSpace=wrap;html=1;fontStyle=1;fillColor=#F8EAE9;strokeColor=#b85450;dashed=1;dashPattern=8 8;" parent="1" vertex="1">
                    <mxGeometry x="90.63" y="80" width="50" height="50" as="geometry"/>
                </mxCell>
                <mxCell id="16" value="" style="shape=image;verticalLabelPosition=bottom;labelBackgroundColor=default;verticalAlign=top;aspect=fixed;imageAspect=0;image=data:image/png,iVBORw0KGgoAAAANSUhEUgAAAJYAAACWCAMAAAAL34HQAAAAAXNSR0IArs4c6QAAAARnQU1BAACxjwv8YQUAAAAzUExURQAAAAAAAAAAAAAAAAAAAAAAAAAAAAAAAAAAAAAAAAAAAAAAAAAAAAAAAAAAAAAAAAAAAKMFRskAAAAQdFJOUwAQIDBAUGBwgI+fr7/P3+8jGoKKAAAACXBIWXMAABcRAAAXEQHKJvM/AAAFaUlEQVR4Xu2c67ajIAyFq2LVqqXv/7SDJKhcgpZbZ9bw/WrVo7sQkhDwPCqVSqVSqVRKwNa3ZB4ZHnHQdM8JrlsGPJQXxj8Hc4tHdZrpfFERXTM+DFl6PH7QaqI+H47Hs7Lgw3ZGPKHodFGCBs/kZMBnHei6tE6WzHgmLy982sGCZzZ6S9Xqtr/kdP3GOL/xuZ/PYV/NfpDP07Bd15XoQo1eNdwbDzweIx5ZhuJqTjBU8cTvDXbh9EtRgg5kKB+AjTXh19+B/qKDb2BZ7x+3laCXQpQnhy+mJ0vOE+PfxuQe6NBAL/kZu9R1YXO61RrZybrrdAeRSZ4D1/WUn1f52UANUeAYuiEcnknijLnwPL6s6/wCQ4OW02nkmQNP8nGJeS+nzdjByNVF2L07yqMEYYRlp0lAx51xtZYhi+PIDaPVe9ElqzESHYErNOuyeFRjCfqnZJV3c8myA7fTcFDWIO/WR7XVCWgShywYhwbc9hAoK7GfpWTZ9i6xXURRWa2VXCGWKykqy9mFG5bnLSlLpTEOzKFWUhaGaRem7yomq2GTEZs0Zr29CslqvJqA+eSeyshi16I2jj8oIashR6DJqhqshCz4dgsVk/PIgubB4XW7rTY4KMEpkvycDlACqQERcCggEEH6E5eU2mAKun0kAw6FTB7htzjT6QjQcW6ZgZ6U30D+GEgoUxdJMH0Wt/UEHAoRt9G0YrM/C0yfp/7rxhLNxUb8LclrN57wd58MhS5Im6OIm1e4QX8YwymkpkPVjILJokq0173wTMDzlcEHYzp7H07UVVLBgshg65XKf04/fgv+YVbs9a9LMkRokyYkZNtLjqkJSLcwP83JsQD2FcmzUoPAbDC3dZF9uEio4ZC7F8n5NExSydOZYzU5Di9kxSxa3IC0+AtZmV3E3yar6fphHJ+hsqZhGJ8MLkoHe12FnAtZyDImzJ3ZjYBzT5Yg1eL6vdLfbVmJJrGOFTAX92Ulsf/m5hzsG1kJdB09yLfFb9Ly/bL4Bn4WOFbQvkMVJDluTrGXWhG/LKgC7ntfYouVKo/hqtnJDMIva9+ypC6Im/ljwvDeG52sj/hlHYkNGkVUSqEa6zBRspzkl3VamMIhFJMYYpedKkDmFoQdvyz7DjHNBU85j5tAWec5GXZjxGCEPtQyXnnEgV/W2cLxl4UbPRqS5vwox+WXpVlSbIkenZbW3FRm45el/TIY3uHGBVagL4hQyYRflpYzYy/CXwQALl0vIVAh0i9LTxpki0c4+i1YzPqvoh7sl6UPu80n73EjBPY0kyMq+fLLMjqsHYbEM7QwWfJkTqhptVdW6tVNG2rp9ceyqITLKyv1oqsNlXB5ZZ13iOeBitVeWZkWoc4Q0ccrK3fVTUB4CK+sGNd5E8JD+GThDo2sEDbvk5Xd4tsxLIMwNnOlRX+pSMcvS7iubGVKbzXiSlaWZX2Jaz/uzqWs+Bm+G//K/rWsTMV5f+nmhqwsVXCcBvGxa3vHcKRk8UFcj4ddG9ZjwYxGThYcy2SELNyBDsdzrGXAndE+bF2ELPRX6IMzGD2EaDUNsra8uWWpyzHvyOBUQccedE1dbbNhyDoSGmjdDPtZ5H1Pg6mjwtDOeVcNDOP0q9atvK9mHVRajyzna6EZ06eDDlneaGS8BFJSlmgwoif5C4bATllZwsRGK4vmS2+IKi9LwKYjLvF1dr7G+QNZGy1jfc8Y+Z7rj2RdUWV9Q5X1Dclldc9hA2etcbJWeashwaYItXcbiZOliH6L35xXpJEVnT6bWUIiWbHps1FxCL6dUVCJrlrq07DgPE5/VSKqKC9pxmVVxPyPlW467jMXqHdVKpVKpVKpVP49Ho8/AAxE2/t6xsEAAAAASUVORK5CYII=;rotation=20;" parent="1" vertex="1">
                    <mxGeometry x="95.63" y="85" width="40" height="40" as="geometry"/>
                </mxCell>
                <mxCell id="56" value="" style="endArrow=none;html=1;exitX=0.002;exitY=0.521;exitDx=0;exitDy=0;entryX=0.993;entryY=0.518;entryDx=0;entryDy=0;exitPerimeter=0;entryPerimeter=0;" parent="1" source="54" target="54" edge="1">
                    <mxGeometry width="50" height="50" relative="1" as="geometry">
                        <mxPoint x="266.76" y="160" as="sourcePoint"/>
                        <mxPoint x="316.76" y="110" as="targetPoint"/>
                    </mxGeometry>
                </mxCell>
                <mxCell id="24" value="&lt;b style=&quot;font-size: 16px;&quot;&gt;&lt;font color=&quot;#cc0000&quot; style=&quot;font-size: 16px;&quot;&gt;Outlier &lt;/font&gt;&lt;/b&gt;classes are &lt;b style=&quot;font-size: 16px;&quot;&gt;known&lt;/b&gt;" style="text;html=1;strokeColor=none;fillColor=none;align=center;verticalAlign=middle;whiteSpace=wrap;rounded=0;fontColor=#080808;fontSize=16;" parent="1" vertex="1">
                    <mxGeometry x="45.980000000000004" y="282.05" width="115.56" height="30" as="geometry"/>
                </mxCell>
                <mxCell id="19" value="CGATTAAC" style="text;html=1;strokeColor=#b85450;fillColor=#f8cecc;align=center;verticalAlign=middle;whiteSpace=wrap;rounded=0;" parent="1" vertex="1">
                    <mxGeometry x="76.20000000000002" y="257.98" width="60" height="10.63" as="geometry"/>
                </mxCell>
                <mxCell id="18" value="AGCTCAG" style="text;html=1;strokeColor=#82b366;fillColor=#d5e8d4;align=center;verticalAlign=middle;whiteSpace=wrap;rounded=0;" parent="1" vertex="1">
                    <mxGeometry x="76.20000000000002" y="237.67" width="60" height="10.63" as="geometry"/>
                </mxCell>
                <mxCell id="17" value="GTAAGCG" style="text;html=1;strokeColor=#82b366;fillColor=#B4C4B3;align=center;verticalAlign=middle;whiteSpace=wrap;rounded=0;" parent="1" vertex="1">
                    <mxGeometry x="76.20000000000002" y="217.35" width="60" height="9.37" as="geometry"/>
                </mxCell>
                <mxCell id="104" value="" style="endArrow=classic;html=1;fontColor=#080808;strokeWidth=3;" parent="1" edge="1">
                    <mxGeometry width="50" height="50" relative="1" as="geometry">
                        <mxPoint x="694.82" y="240" as="sourcePoint"/>
                        <mxPoint x="694.82" y="260" as="targetPoint"/>
                        <Array as="points"/>
                    </mxGeometry>
                </mxCell>
                <mxCell id="105" value="ROC and PR curves are calculated" style="text;html=1;strokeColor=none;fillColor=none;align=center;verticalAlign=middle;whiteSpace=wrap;rounded=0;fontSize=17;" parent="1" vertex="1">
                    <mxGeometry x="457.23" y="260" width="137.59" height="39.05" as="geometry"/>
                </mxCell>
                <mxCell id="130" value="Calculate DNA distances and rank classes based on it" style="text;html=1;strokeColor=none;fillColor=none;align=center;verticalAlign=middle;whiteSpace=wrap;rounded=0;fontSize=16;" parent="1" vertex="1">
                    <mxGeometry x="202.06" y="289.68" width="187.94" height="30" as="geometry"/>
                </mxCell>
                <mxCell id="131" value="$$d_{32} &amp;lt; d_{31}$$" style="text;html=1;strokeColor=none;fillColor=none;align=center;verticalAlign=middle;whiteSpace=wrap;rounded=0;" parent="1" vertex="1">
                    <mxGeometry x="324.19" y="246.3" width="65.81" height="15" as="geometry"/>
                </mxCell>
                <mxCell id="133" value="" style="endArrow=classic;html=1;strokeWidth=1;" parent="1" edge="1">
                    <mxGeometry width="50" height="50" relative="1" as="geometry">
                        <mxPoint x="219.56" y="243.80000000000004" as="sourcePoint"/>
                        <mxPoint x="219.56" y="207.30000000000004" as="targetPoint"/>
                    </mxGeometry>
                </mxCell>
                <mxCell id="141" value="$$c_1$$" style="text;html=1;strokeColor=none;fillColor=none;align=center;verticalAlign=middle;whiteSpace=wrap;rounded=0;" parent="1" vertex="1">
                    <mxGeometry x="51.200000000000074" y="212.66" width="19.94" height="15" as="geometry"/>
                </mxCell>
                <mxCell id="142" value="$$c_2$$" style="text;html=1;strokeColor=none;fillColor=none;align=center;verticalAlign=middle;whiteSpace=wrap;rounded=0;" parent="1" vertex="1">
                    <mxGeometry x="50.63000000000007" y="237.67" width="19.94" height="15" as="geometry"/>
                </mxCell>
                <mxCell id="143" value="$$c_3$$" style="text;html=1;strokeColor=none;fillColor=none;align=center;verticalAlign=middle;whiteSpace=wrap;rounded=0;" parent="1" vertex="1">
                    <mxGeometry x="50.63000000000007" y="257.35" width="19.94" height="15" as="geometry"/>
                </mxCell>
                <mxCell id="149" value="Highest score class `c` is chosen as candidate prediction and compared to the true outlier&amp;nbsp;" style="text;html=1;strokeColor=none;fillColor=none;align=center;verticalAlign=middle;whiteSpace=wrap;rounded=0;fontColor=#080808;fontSize=16;" parent="1" vertex="1">
                    <mxGeometry x="457.23" y="-40" width="350" height="40" as="geometry"/>
                </mxCell>
                <mxCell id="201" value="" style="shape=image;verticalLabelPosition=bottom;labelBackgroundColor=default;verticalAlign=top;aspect=fixed;imageAspect=0;image=data:image/png,iVBORw0KGgoAAAANSUhEUgAAAbMAAAGzCAIAAAAqj27QAAAAAXNSR0IArs4c6QAAIABJREFUeAHtnQl8FEXe9ycJyiWHBw/7LLIBhaCu4oGCAoqAiuIKiouI+KDu5buuvvuiPsQDBYSE+wogIGAIIITLgw33TSAkBDlDCOQgyZBAyDW5JzOZ6fcTW4tOd013zUzP0d2/fPbjVlf/q7rqWzVfqqd7uk0c/kAABEAABJoSMDXdxBYIgAAIgAAHM2ISgAAIgICYAMwoJoJtEAABEIAZMQdAAARAQEwAZhQTwTYIgAAIwIyYAyAAAiAgJgAziolgGwRAAARgRswBEAABEBAT0IYZHQ6H2Wy2WCwV+AMBEAABrwlYLBaz2exwOMRG/G1bG2Y0m80m/IEACICAqgTMZvNvJhT/vzbMaLFYTCaT2Wz2+p8KVAACIAACFfxiy2KxiI3427Y2zFhRUWEymSoqKn5rNv4fBEAABDwnoKgUmNFzuCgJAiCgUQIwo0YHDs0GARDwIQGY0YdwUTUIgIBGCcCMGh04NBsEQMCHBGBGH8JF1SAAAholADNqdODQbBAAAR8SgBl9CBdVgwAIaJQAzKjRgUOzQQAEfEgAZvQhXFQNAiCgUQIwo0YHDs0GARDwIQFjmbGoou7ZuQf5/728+Mj0HRcKLbU+pIuqQQAEtEnAWGa8Ul4bHpkg/N+TM/ZDjtqcumg1CPiQgNHNGB6ZEL093YeAUTUIgIAGCRjLjNnXq4QLRj49bGGiBgcOTQYBEPAhAWOZ8ee8MqkZB84+4EPAqBoEQECDBGDGBJhRg/MWTQYB3xKAGWFG384w1A4CWiRgLDNKr02HR8KMWpy3aDMI+JaAscx4raIO3zP6dkKhdhDQBQGYEWtGXUxkdAIEVCUAM8KMqk4oVAYCuiAAM8KMupjI6AQIqEoAZoQZVZ1QqAwEdEEAZoQZdTGR0QkQUJUAzAgzqjqhUBkI6IIAzAgz6mIioxMgoCoBmBFmVHVCoTIQ0AUBmBFm1MVERidAQFUCMCPMqOqEQmUgoAsCMGMAzNjgcPKTx9bg2Ha2cM7ui6uOXi6psuaX1szYcYH8fnHUsqSJP6U9N/dQz0m7noje+2LM4RdjDr+5InnD8fwNqflR29JXJ13+eOPpHeeu6mIqohMgEEQEYEY1zVhWXT9t+4W7Pt1G7Oa3xHtrf96ZdtVcVhNEkwtNAQHNEoAZvTJj9vWqMcuT/aY/dw9UZ2vQ7MxEw0EgkARgxoSBs5ie6R17JMddMQVJvNUOPwbyM4Zja5GAscxYRH0KmQsz1tTb16fkPR69N0gE500zFu3P1OLsRJtBIFAEYEb6mvGs2eKNiYKz7KYT5kDNMxwXBLRFAGakmHHHucLgVJsqrdLWBEVrQSAgBGBGsRmLKinP/VZFSSyV/CkmURj20ORdd0uudD80eZcwxoO00/nrbUMBmXM4KAgEPwGYUWzGR77a7YFr2IsMW5jY/bPt0dvS1xzLLSiv5SUl/C/7pDmRWzpuwyn2Qwsj2Y+CSBAwIAGYsYkZlx3KEurD3fS07RcCvhw7lV/O2GwDTnd0GQQYCcCMN8yYermU0SnCsMyiSkbW/gz7x+pUYSNdpW0NDn+2CscCAa0QgBl/NeOJXCYtVtTZdqVdHbM8Ob9UA782+UvscVdOJPnkp4pambJoJwj4gQDM+KsZiSlcJd5dfcIP46H6IRwOp6sekXzVD4oKQUDrBGDGRjPmFFcTTUgT565YLLU27Y6006kgR02sf7XLHy3XIgGYsdGMM3feeMKNyIx9ovZqcVxFba6zNYj6JdwcPOegKB6bIGBwAjBjgtAR0rSe5oe0dyRHT91EX0DAewIwo5wZvecbVDXInFYHVTvRGBAIOAGY0aUZT+SWBXx4VG/A0axisk4kiTdXJKt+IFQIApomADO6NKOmx9VV45OySogQSeIvscddxSMfBIxJAGakm/HVr4/qckIcy6aY8R2YUZeDjU55QQBmpJsx+3qVF1SDt2gyzYxvf5sSvC1Gy0AgEARgRroZAzEW/jhmSg7lpz5vwYz+YI9jaImAwczI9oSxlYk5WhpDd9p6nPbb8LErsWZ0ByJiDUAAZqSsGQP+vBzfTTxXT83w3RFRMwhokQDMSDGjFgeSsc2uHpzBWBxhIGAQAjCj2Iw19XYdj/2hi9fJzTok8fqyYzruMroGAh4QgBmbmHFX2lUPIGqoyBkz5bm2o5YlaagLaCoI+IEAzNjEjH4gHthDnLtCeSfia0thxsAOC44edARgRpgxYeQSmDHoPploUGAJwIzGMmNaAWXN+Ocl+vzBT2A/Wji6pgnAjDfMuPhApqbHkqXx6YUV5MILSej1p5AsQBADAlQCMOMNM+7U++UXjuMuXKWY8ZXFR6iTA5kgYFgCMOMNM164WqH7eZBxtZIsFUniZZhR9wOPDrpJAGa8YcaL14Lx/ahuDqhC+KVrFDMOW4Q1owI37DYaAZjxhhmLKup0P/yZRTQzLkzUfcfRQRBwiwDMeMOMOv65NJkTWderyEk0SbwEMxJASIDALwRgxhtmNMKUyKaZ8cWYw0boO/oIAuwEYEZjmZH6Zu2hC2BG9o8MIg1BAGY0lhlzS6rJSTRJvDAfZjTEpx2dZCcAM/5qxjXHctmpaTcyr6SGCJEkhsw7pN0eoeUg4AsCMOOvZqyss/mCb7DVmV9KMeM9E3YEWzvRHhAILAFjmfF6pZUslESJwA6D345uLqOYkUdRUF7rt2bgQCAQ5ARgxl/XjEE+Tmo170p5reifBOEmXpWlFmfUo3UCMKOxzFhokTNjeGTCn2Jw17fWP9RovwoEYEZjmdFqb4j4fLtwnShN19kaVJhZqAIEtEwAZjSWGTmOe3nxEakNhTkfrDup5SmNtoOACgRgRsOZkXrjjtCM4ZEJKswsVAECWiYAMxrOjBzH1dkaoreni2wo3NTylEbbQUAFAjCjEc1IJg71hVnhkQklVVYSgwQIGJAAzGhoM3IcJ1wqCtMG/DCgyyBACMCMjWYcMHM/IWK0hNCGwrQRnslmtLFGf9kJwIyNZpy89Tw7Mp1F/nVVqlCIwrTOeorugAA7AZix0Yzz9lxkR6azyCqrXWhDYRrLRp2NNbrDTgBmbDTjv777mR2Z/iKFNhSl9ddZ9AgEWAjAjI1mjNx8hgWWXmOoD+DhFanXLqNfICBPAGZsNOOyQ1nymHS/V7RUJJs4odb90KODVAIwY6MZlx/OptIxTqarZWPq5VLjQEBPQYAQgBkbzbgyMYcQMWyCrBNFCcMCQceNTABmbDRj7BGYEbd8G9kD6LuYAMzYaMbVSZfFYIy33X/GPtFqkd80Hgn0GAQ4Y5mxuIr+toPVxng9lvx8P2u2UM1YjN9Qy4PDXj0SgBkb14xf/HhOj4PrXp+cTifVjH9ectS9ihANAtonADM2mhFPJORnMtWMgKP9jzl64DYBmBFmvDFp3vo2RSrHHhO234hACgSMQQBmhBlvzPSDF69LzYg14w1ASBmGAMzYaEYsi/gJn1tSDTMa5rOPjsoRgBkbzfjC/MNykAyzr97ugBkNM9roqBwBmLHRjHjJMpkjVDPW2x0kAAkQMAIBmLHRjG+uSDbCYLP0kWpGvIGaBR1i9EQAZmw047TtF/Q0qN70BWb0hh7K6oYAzNhoxlk7M3Qzol52pNeUPVI51tTbvawWxUFAWwRgxkYzztkFM/46bx+bSjFjtRVm1NbnGq31lgDM2GhGI78HRjSDekdRzFhZZxOFYRME9E0AZmw04/Qd+J7x13n+ePRe6dl0Bcyobw2gdxICMCPWjE0mxRM0M1pqsGZsQgkbuicAMzaaEW87IBO97zTKUxrLa+pJABIgYAQCMGOjGb/FM71/m+z9plPMWFoNM/4GCP9vDAIwY6MZ4/BM79+m+5Mz9ku/Z8TDa3/Dg/83CgFjmbHExTO91+CZ3r9N+AEzKWa8Xmn9bT/+HwQMQQBmbFwzrkvJM8RoM3Ty6VkHpGvGooo6hqIIAQH9EIAZG824K+2qfobUu54MnE0x4zWY0TuqKK05AjBjoxlxJzOZuINoZiy01JIAJEDACARgxkYz1tY3GGGwWfr4zJyD0rPpgnKYkQUeYvRDAGZsNCOeskVm9LNzKWY8Yy4nAUiAgBEIwIwwY5N5/vqyY9I14/+LP9UkCBsgoHcCMGOjGa12nE3/OtO/+s95qRlfW5qk9w8C+gcCTQjAjDBjkwkR8fl2qRnfXX2iSRA2QEDvBGDGRjPiPSdknv/f9SelZozenk4CkAABIxCAGRvNaGvAG6B+ne2rjl6mmHEbzGgEG6CPNwjAjI1mbHA4byAxdmptcq7UjFEwo7FnhQF7DzM2mtGAA++qy98l50nNOOU/513FIx8EdEkAZoQZm0zsdSkUM34FMzaBhA39E4AZYcYms3w9zYyTt2LN2IQSNnRPAGaEGZtM8g3H86Vn05O2pjUJwgYI6J0AzAgzNpnjG1IpZpz4E8zYhBI2dE8AZoQZm0zyjTQzfvnjuSZB2AABvROAGWHGJnN80wmz9Gz6C5ixCSRs6J+AscxYWl0v/djjrh3hNN9MM+OEH7BmFEJCWv8EYEasGZvM8u9PUtaMn31/tkkQNkBA7wRgRpixyRz/4eQV6bL6U5ixCSRs6J+AmmY85Ms/+aFQ7AZfHGfT8hg5jvvxFMWMn2zBmlGRHAJ0RUBRKSb27oaEhIT65i8sLEy+GYrd4IvDjPIYXZvxjGJBBICAnggoKsVtM4b44C80NFQeumI3+OIwozxGjuO2ni6Qnk3/cy2ez6hIDgG6IqCoFPfM6AMrNlYJM/pt0v3nDMWMuHzvN/44UJAQUNOMk3z5J89LsRt88ZIqq3RBhI+9kG38ccoTJR6avEsYgzQI6J6AolLcWDMGEJZiN/i2wYyKY/QT7Wz6r6uOKxZEAAjoiYCiUnRlxmKsGZUmb+rlUumy+q1vU5TKYT8I6IoAzIj7GZtM6JN5ZVIzjlme3CQIGyCgdwLGMuP1SnzPqDCjz5otUjP+eclRhWLYDQL6IgAzYs3YZEafL6iQmhGvV2zCCBsGIGAsMxZV1lE/9gYYaNYuXrxWSUWEK/isBBGnCwIwI9aMTSZyRZ3NlRkhxyaksKFrAmqacaDP/gYNGiQ/Cord4IsXVWDNKA+ycW+fqL2u5Oh04vWzygARoQMCikpx464dH/1uWsXfwFy1wIzKk3bV0cuuzHg6v1y5PCJAQPsEYEacTVNm8d2fbqPKMXp7OiUaWSCgOwIqmzHIfzddaKmlfuB1N6wqdIgKCl81qkAWVWiBgJpmDGB/FbvBtw1mZB+j8ZvOUOXIXgMiQUC7BBSV4sb3jAGkoNgNvm1XyrFmZB0l6ounsWZkxYc4jRNQVIquzGguq8E6iHHG1tY3gBUjK4Tpj4CxzJhfCjO6MYepZqyy2t2oAqEgoE0CxjJjXgnM6MY8pZrxZF6ZG1UgFAS0ScBYZswtqaZ+2rU5dj5vNZXV5K3nfX5gHAAEAk3AWGa8XAwzujHjqGYcMu+QG1UgFAS0SSBgZiwpKUlMTNy6deuaNWviGP7k8Sp2gy+efb2K+mmXr9ywe++ZsAO4DDv6Bu+4olJUvjZdXFw8efLkiIgId1+/Kj9Oit3gi2cWwYzyIJvsnb/nEszYhAg2fEDgWkXdseySw5eu19Y3+KB6D6tUVIqaZtyyZUu7du1CQ0PZfyrDB6v17sDMIvojtjyEp/diZ8zlVDPiuRJ6H3mf9M/hcBaU1/546krk5l9/RNDts21//HKncI4lnCn0ybHdr9R/Zly7dq3UiWTlKHSlNFMtM7p6+KD73AxRwuFwCmctSRdV1hmi/+ikpwSs9oajmcWRm8+8/W0KmTbsiS9/POfpkVUr5ycz5uTktGrVin9qTkhIyIMPPjhp0qQZM2bwQgwNDV21alVMTMwnn3zy1FNPhYWF8ZEdO3ZcuHDhql/+5Hus2A2+eMZVrBnlQYr3UmfzVQvMKAZlzG2Hw5l1vWrBXvq3LtTJw54ZWKSKSlHnbPq9994jzyibNGkSfzqWm5tLzCikkJmZ+corr/Dx999/f2Gh8gJbsRt8/WkFlJec4BdvQviiNHUeF1pqRWHYNAiB0ur6/5wpoM4K1TO/PZITQKqKSlHBjA6Ho23btvw58qhRo0hvXZmRD/jyyy95Ofbq1ctms5FS1IRiN/hS567AjFR+LjOfmXNQOuMLymFGl8R0tqO4yhp7JOeF+YfDIxPucvFsOukMUSsngDAVlaKCGU+dOkXWhufP37hPWN6MHMeRlePs2bPlGSl2gy8OM8pjlO6FGaVM9J1jb3AsPpDpfwlSZRpA1IpKUcGMa9as4Vd/Xbp0EXZVaEbq5c6MjAy+4L333issKE0rdoMvQn1lKM6mpTxJzrNzKWvGK1gzEkC6SBRXWaO3pQ+cdYCqp0BlDpp9IIB0FZWighkXLFjAC+7FF18UdjUvL4+sJWtr6Sdo9913H182LS1NWFaUVuwGH+/qNhRRbdgkBGBGgkJPCafTmV5Y8fWBrL/EHn906h5/um/YwsSRS5JGLUtKvFScdb2qpt6+5GAWtQEDdW/GqVOn8nZ78803hdOrpKSEmLGoqEi4i6RffvllvuymTZtIpjQBM0qZqJLz3NxD0llrLqtRpXJU4mcCxVXWjan50gH1Xc68PRdn7cxYtD9zZ9rV0up6V/29Rnt13cBZel8zzps3j7eb8PILx3H19fXEjCdPnqRSe/PNN/myCxcupAbwmYxmxO+mZRhSdw2ZRzFjfinMSKUVjJnVVnvM3kvDFh0ZMHO/7wwYHpnw4YbTa47lVlntdTa3f8pCfann07o3I/me8YUXXhDNnQ4dOvDiW716tWgXvzl48GA+YNq0adQAPpPRjHjWjgxD6i6YkYol+DMLLbVf/njORyp8csb+L388t/pYbkmVVRUU1yut0qY+NXO/KpV7VomiUlT4njElJYW3W7du3UStfPrpp/ldb731lmgXx3HV1dVt2rThA5YuXSoNIDmK3eAjYUZCjDEBMzKCCoawBocz9XLprJ0ZUst4k9NjwvZHp+4Zt+HUidwyD9aDLGSKqyhmfHKG3s1YVVXVrFmzkJCQsLCwmpomJ2JffPEFf0LdqlWr3NxcEcQJEyaQ0+3ExETRXuEmzCikoWIaZlQRpo+qKq6yTtqa5o37XJVdfji7zPWXgyp2p4Rmxv4z9ql4CHerUlSKCmtGjuN69+7NL/22bt0qbGJaWhqfHxISEhERcejQr8/+s1gsn3/+Odl1xx13yN/srdgN/qBYMwrhs6Sf/+UWX9EnJ6+kyT9vLPUgRl0CTqfzWHZJ1LZ06iUy0Xixb65MzAnILVml1fXSRvabbgAz8mvD0NDQv/3tb6IpQq4+8x5s06ZNp06dbrrpJvL4idDQ0EmTJolKiTZhRhEQtTapZswtqVarftTjFoG8kpp/rz85aLZqNx7O3HkhrcDio3Nk9q6V0czYd5oBzMivDUNCQlq3bm2xWITI8vLy/vu//5v/7SB/7kz+y8uxd+/e8gtGjuNgRiFSFdP8z8JE/55P2ip3b6mKR0dVHMc5nY1PbRi5NEk0Cp5tDp5z8F/f/bzheH5QPQzRUmOTdscQZuQ47uTJkyd++auqqhLN+PT09J49ewqFSBaMQ4cOFZlUVJbfhBmpWLzPdLU88b5mX9fgcDjjj+fxn7fHo/euPpZbb3f4+qAq1u90Ok/mlc3ZlUH9gabUI4o53yXnBe1Dkiy1FDM+Hr1XRZ7uVqWoFHW+Z1RsVkNDw8aNG8eMGdO7d++IiIg+ffr84x//2LePdTmt2A2+AfieUXEgRAGuPm+isKDazHHxtp9x8aeoP0INqsbbGhzxx/M+/+GsK/Lu5q9IzGlwOIOqj9LGVNRRzNgnCmaUonIzB2Z0ExhruKvPIWt5P8bV2RoUn5N6xlzuxxa5caiaevvEn1S4vvzAxJ1vLD8WvT09aHtKhVJJM2PvqD3UYP9kKirFT2tGL3ur2A2+fqwZ3eXc4OKx3o6gWYY4HM4fT115i+3Z0csPZ7tLwKfxdbaGAxlF1B+nu/o3yVV+xOfbF+3PrKm3+7TBPqq8ymqX9uuxqTCj17xhRq8RuqxAOmXDIxOC4Rur8wUVD3+1m9o8V5lzdmW47Kcfd9TZGubvudRz0i5X7WTPX3IwK63AEvzfEsjTraaZ8VGYUZ4ay16YkYWSZzG9plCexZKUVeJZbaqUOnjxOrs7hJEfbzytSgM8q6TO1rAu5deLQsJWuZu+/8udc3dfrKhTeJyzZ40MSKna+gYphF5TsGb0ejRgRq8RuqxAOmX5nMwi8T0GLqtQb8dSF0+sctVIkt/lk4TwyITR3xxTry2sNfFXmb/48dz9Td+TR9rGmBgwc396YYXWl4dUanU2ihkf+Wo3Ndg/mYpKUed7xh07dvB3LLZq1crVA8dEHb527VqLFi1CQ0PDwsL271f4BaViN/jK8T2jCDLL5mDaCw/4D7Pfli31dsfc3RfvmbCDUSKuwt5fR3+kEwsHD2IuXav8x+pUV41hye8/Y9/XB7KyrgfgHyEP+utxEaoZHzaCGV977TX+Jy5//etf2fG98847/E2Oogc7SmuAGaVM1Mr5YN1Jmc+wWkdxVU+11T5yiTo3OYdHJvjnIQWWGtuqo5f7Ttsnw01+1+vLjm1IzTfOm8isdsqa8aHJu1zNCj/kKypFhTWjw+Fo3749b8a9e924R2nv3r18qTvuuEOehWI3+OJYM8pjpO599eujMh9j390rV1vf8JfY4zKHpu66/8udcUmXOY5LySmlBlD7qEpmvd2xM+3q3+O8WiS++vVRS41+vkBkBFtvd/h5sBQbpqgUFcx4+vRpfunXqlUrh8ON3yE0NDS0bNmSl6MqbzuAGRUnhDQgKauEOmv5zMUHMqVFvMyx1NreXX1C5qDUXRN/SqsUXJQ4kUsx4/0Td3rZNmrxzKLKqG3p1EtV1KaKMv8el7r5hNmAQiQwbQ10MwbwHU3+MOP69et5u/Xp04ewYEz06dOHL6vK2w6ojw4OIH1GCIENczqdok+ydHPS1jRVrgyUVFk9OHfefrZQevSs61XSdoZHJqh4J2ZNvX3zCTP1KIyZi/ZnWmoNt0KUzmdXt82GRyZsO6v8unlphd7n+MOM5G0HI0aMcLfFI0aM4M24YMECmbKK3SBlpT8E/sC/38qTlmgo4coyos+/Nz26XFzdY8J2UYWKm5eLXT71p6C8llo8raDJA008a/O5K5bPvj97/8Sd1EPIZHb9JGHsypRdaVftDW6cPHnWSG2VcgXtiQD9elpRKSqcTUdFRfF2U7yQIh1L8h6Y6Oho6V6So9gNErkyMUc4Bnd/uu1IZjHZi4QrAk6nU/EdxDvOXXVVXCbf1UvAhcMkSveO2lNe4/J1S/yxqJc7wyMTfjh5RaYx8ruqrfZ1KXkvLUwUtYdl8/HovYv2ZwbDHfLyfQzU3v+73uWFvoA0SVEpKphx4cKFvBmHDh3qbieHDh3Kl503b55MWcVuCMsuP5zNXzd8bu6hXWmefJiFtRkn/cPJK4oKcIvGtYq6P8W4YZn7J+7ckJrPfs2H2tqNqfluNZJ/DljCmUJqbSyZH288fe6K5n+m4i40d+Nd/UsWqC+7FJWighnJ94x33XWXu7zuuusu3oxr1qyRKavYDVFZp9Mp/LZetBebVAJXLXWKImC8/ZulKuGxek3ZveVns/TLRGo7SeY7tEvbG467YcY6W8O4+FPClrCnxyxPTrxUrOLXmqRfek1QvwAJ1HuyFJWighlPnjzJX5sODQ3NyHDjh6sXL14kBZOSkmQmhGI3ZMpiFyMBlksxiv/CV9TZJvzg3jvtZuy4wL5OFPblq/+cl4psXUqeMMZVOr+05p9rT9z7hdv3lr+2NOn7k2aNPtnBFQ3/5FP/vRw4OzBvnVZUigpmdDqdt912G/8bGOo7Al1xf/vtt3kztm3btqFB7iW2it1wdQjku0Ugalu61DWiHFcVVtbZ5G+NFNUTHpkQs/eSu+tE4dGprV1zTPwiNmERp9N5/HLp/1nj9j1D4ZEJ0dvT8R4IIUx309cqKCclAwP01mlFpahgRo7jxo4dS1Z/69evZ0EWHx/PyzQ0NHT06NHyRRS7IV8cexkJNDicij93k1ZVWWdTvHoj0uLyw9neOJFvQ/R2isdX/3IfuLSRtgbHp9+7/bzYrp8k/CX2+I5zuNYsJep2DvWmuqf1bcaMjIywsDD+HQbNmzefNWuWPLY5c+Y0b96cjw8LC5O/zZv9PTDyB8VeRgLmspr443mrky6LdBYemfDG8iaPbLA3ONYcy5WGyeTsVO+a2IwdF6QHij2SI+pmbkn1myuSpZHyOX2n7Vuw9xKuNYtgerNZVElZM+rcjBzHvf/++/y1FP6/3bp1mzFjRkpKSnX1r7ekVVdXHz9+fObMmd27d+edyK8Z33vvPUXcWDMqIlI94FR+udQdwofZJF4qduudn6rfJzB7F+Wd9CsTb5gxr6Tmyx/d+9IzPDLh73GpBzKKPPvqU/VR0FOFVDMOmKnwNBkfEVBUijpn0xzH2e32/v37EznyCd59N//yR86dyXl3SEjI008/Lf8NI89FsRs+wmfkaqn3IY5c2nihrKTK6tYlXcYr2u7SnrP7otTdC/dd4jguvbDig3Unu/7yaDJpjKucV78+WlRZ524zEM9I4HqlVUpez9emCZeqqirydmnydkDeg8L/8ooMCQkZOXIkWVGSSqgJmJGKxaeZ6YUV0nkcHpnwmjvv/1wtez3Ey/bP2klZM4ZHNn4zSG25TOai/Zk2/GrFy/FQKl5cRTGjfx6PJG2aolJUWzOSYy9btqxr165EhWSpSIQYEhLSrVu32NhYUkQxodgNxRoQ4C6BzKJKGZUo7kq9XOruEd2Nn7ad8j2jYsOEAT0n7Tp3RYVfE7rbcmPGlxjcjBzHNTQ0bN269d///vdjjz125513tmzZslWrVp07d+7du/cDXw2rAAAgAElEQVS4ceO2bdvm1iN5cAUmIB8kc1mNUCKM6V5T9uzPKPL+ujNLl386XcDYKlHYo1P3LNqfWVqt8ANEljYghp0A1Yz9Z7C+Wpn9QCyRiost9deMLM1yN0axG+5WiHhFAnbXT44SiYZsLj+c7c8LF9RvQkljXCXm7Mqot+NxD4rjr35AaXW9dFD6TYcZvUANM3oBz/Oi0nlMzbn7021TE877Xzc5xdXU9rjKPJBR5DkLlPSaQBnNjH2nwYxekIUZvYDnedGPNp52ZRmS/+7qE4G66S/bxSMaSdvCIxPu/nTbRxtPZxZVek4BJVUiUF5DWTPCjF7RhRm9wudpYeoNg0LvBOqxo3yHqO93J83rMWH7xJ/SCsprPe09yqlMwFJjI6NDEoYzo81mO3LkSFxc3Lx587766qvJkyd7gxlm9Iaex2XPF9Bv3AmPTHhh/uE6m9xP3T0+qFsFqT9u6Tlp15xdGSVVVreqQrCvCVDNqOcn14qAJiYmDh8+vGXLlqL7dURhO3bseOeXv48++ki0S7oJM0qZ+CGH+vSdN5Yfyy+t8cPRWQ5hLqt5csZ+sgAJj0xYcjCr2mpnKYsYPxOw1FLWjI/r+JnehG91dfUbb7whvG9ReFcjCeMT+fn5zZo144NPnz4t2ivahBlFQPy2WVNvJ68PfXbuwZQcn9+l6G7XLDW2n04XzNl9cVfaVTjRXXr+jK+oo5ixT5QbbxtVsbWKSlHtrp2KioqePXuSH0QLncj/UlDaq2HDhvG7PvnkE+leYY5iN4TBSIMACAQhgUpjmvHZZ58lP5pu0aLF2LFjY2Nj4+LieEWGhoZKhyo2NpYv0qtXL+leYQ7MKKSBNAhokQDVjL2j9gSkL4pKUWfNuGnTJt5xoaGhffv2NZvNfG9zc3NlzHj16lV+b7NmzaqqqmQAKXZDpix2gQAIBAMB6r0Ej03VtRkffvhh3ow9e/asqbnx9by8GTmO69ixI1/w+PHjMoMHM8rAwS4Q0ASBaqtdeK2MTz+qYzMWFhaSheGhQ4eEg6RoxgEDBvBm/O6774QFRWmYUQQEmyCgOQI19RQz9pqi3zXjli1beLuFh4eLRkvRjK+88gpfNiYmRlRWuAkzCmkgDQJaJGA4My5evJi327Bhw0QDpmjG//mf/+HLRkdHi8oKN2FGIQ2kQUCLBGrrG6Rn072m7A5IXxSVosIVmOjoaN5ub775pqiTimYka8a5c+eKygo3FbshDEYaBEAgCAnU2ShmfOQr/ZpxyZIlvBlfeukl0XgomrFPnz582VWrVonKCjdhRiENpEFAiwSoZnxYx2bcvHkzb7e77rpLNGDyZrRarc2bN+fL7t0rdys8zCgCi00Q0BwBq52yZtSzGXNycsi16QsXLggHTN6M3333HV/w5ptvln8hDMwopIo0CGiRANWMD03eFZC+KCpFhe8ZOY7r3r07v/QbO3assJ8yZrRarffddx9fql+/fsJS0rRiN6RFkAMCIBBUBOrtDukVmAf1bUb+IgyvOeE3hq7M6HA4+KvSfJF169bJDyHMKM8He0Eg+AnYaO/P6DlJ12vGmpqajh078o+TCAsL+/TTT/lfwlDNeP78+cGDB5NnlEVERCi+UAlmDP55jxaCgDwBV28Wki/lo72KSlHnbJrjuJ07d/JPFeOXgW3btn399dfHjx9PvoKMj4//6quv+vfvHxYWRt5G3bJly59//lmx84rdUKwBASAAAoElYFAzchz3zTffkEcu8n4kBiSbwseU3XTTTYrn0fxYwoyBndM4Ogh4T4D6IOTwyAR7QwBe5aioFNXWjDy4ffv2/e53vxN6kJw1CzNDQkI6dOiwf/9+RtyK3WCsB2EgAAIBJCC9AhMemeD/t06yvMJeZTNyHFddXT1r1qzw8HD+PFr63w4dOkycOLGy0o3XucGMAZzNODQIqEUg4vPtUjkaxYwE4sWLF1euXDlp0qQPPvjg3Xff/fzzz2NiYk6cOKF4vYXUQBIwI0GBBAhol8DDX+2WmtFqD8Cr1hSVov6a0d1hKy0tjYyMlC+l2A354tgLAiAQDAQeoZkxIC+hVFRKIM1osVgmTJjQtm1b6rsQhAOp2A1hMNIgAALBSaDXFMqaEWa8MViVlZWTJ09u3749uVR9Yx8tBTPSqCAPBDRGAGZ0OWDV1dXR0dG333676IYelwV+2QEzyvPBXhDQBIFeU/ZIv2esrdfX94w2m23nzp3jx48fPXr0kCFDhg8fPm7cuJ9++slup78H3Wq1zp49u0OHDsSJ5M3UERER8uMKM8rzwV4Q0ASBR6fq3Yzx8fHh4eHkXkVhomvXrjt37hSN0/fff8/Hk5/E8H6MiIiIi4tzOBRu9YQZRTyxCQJaJEA1Y009fS3l0w4qKsWTKzCTJ08m6z6R6fjNZs2axcfH8x2zWq1vv/02iSfrxB49eqxZs0bRiXwlit3wKURUDgIgoAqBx2hrxmqrLsy4fft2oQ2J8kQ/cWndunV+fr7Vah0wYAAfQ5x4zz33rF27ltGJ/HjAjKrMS1QCAoEl0DuKcjatEzN269aNSJD/kd/QoUPHjBnz0ksvderUid/F//df//rXBx98IAzu3r37unXrcKd3YGcnjg4CgSJANWOVDtaMBw4cIO5r06ZNXFycSHM//fTT7373O355eOutt/IvMwgJCbnlllvmzp3r6uKM4jhhzaiICAEgEPwE+kTtlV6brqyz+b/likpx73vGjz/+mHyTePDgQWp/0tPTW7duTc6dQ0ND77rrrvT0dGowY6ZiNxjrQRgIgEAACTwerVMzPvPMM/yaccSIETJ8x40bR5aWrVu3zsrKkglm2QUzslBCDAgEOQGqGSt0sGbkn6ATGhq6du1amTE4cuQI+Xrx/fffl4lk3AUzMoJCGAgEM4EnaGtGS632z6bbt2/PK+/UqVMyA1BWVkbMmJCQIBPJuAtmZASFMBAIZgJ9p+2Tfs+oBzOGhYXxysvJyZEZAKfTSe7s8fIbRv4oMKMMbewCAa0QoJuxRvtrRuK7vLw8+cFgj5Svh98LM7JQQgwIBDkBqhnLa+r932xFpbh3bZrdd+yRLFAUu8FSCWJAAAQCS6DfdMrZdFk1zOjpsMCMnpJDORAIIgL9Z8CMvywaQ0NDFc+7WcYNZmShhBgQCHICVDOW6mPNyN/CvWHDhkOyf+RsWjGSr0Z+RGFGeT7YCwKaIPDkjP3Sa9MlVVb/N15RKW5/zyh8PARvSep/eTOSe3eoMSQzLCxMHo1iN+SLYy8IgEAwEHhqpq7NKHy+DjGgKEGsJ8qnbuI9MMEwa9EGEPA1AaoZi3WzZiTWUyXBryvlhwRrRnk+2AsCmiAwgLZmvF6p/bPp8PDwLr75kx9XmFGeD/aCgCYIPD3rgPR7Rj2YMVD0YcZAkcdxQUBFAlQzFlXWqXgIxqoUleLeFRjGo6oeptgN1Y+ICkEABFQnMJC2ZiyqgBk9JQ0zekoO5UAgiAgMnE05m4YZPR8hmNFzdigJAkFDgGrGa1gzejxAMKPH6FAQBIKHwCDamvGqBWfTng4RzOgpOZQDgSAiMHjOQem1aZjR8xGCGT1nh5IgEDQEqGYstNT6v4GKSsG1af8PCo4IAgYl8AxtzVhQDjN6Oh8UBe9pxSgHAiDgPwLPzqWcTcOMng8AzOg5O5QEgaAhQDVjemGF/xuoqBScTft/UHBEEDAogSHzDkmvwMTsveR/HDCj/5njiCAAAnQCwxcdkZpx+eFserQvc2FGX9JF3SAAAu4QoF6bXnowy5061ImFGdXhiFpAAAS8J7Bw3yXpmnHxgUzva3a3BpjRXWKIBwEQ8BWBxQcypWZcuA/fM3oKXFHwnlaMciAAAv4jsPRgltSMC3AFxuMRgBk9RoeCIBA8BL45lC0149zdF/3fQkWl4K4d/w8KjggCBiWwIjFHasbZuzL8jwNm9D9zHBEEQIBOIPYIxYzR29Pp0b7MhRl9SRd1gwAIuENgddJl6ZoxPDLBnTrUiYUZ1eGIWkAABLwnsDY5F2b0HuONGhQFfyMUKRAAgWAl8J8zBVQz5pfW+LnJikrBFRg/jwgOBwLGJVBvd1DNmHq5VB6K0+ksqbKeyC2bvPW89KXVj07dEx6ZsDE13+l0ytdD9sKMBAUSIAACgSdANeOx7BJhyyrqbIcvXV92KOv5+Yep8a4yhy86wihHmFEIHGkQAIEAE/hbXKrUa1Hb0mfuvMAv/R6P3isNYM+Z8MM5lh7CjCyUEAMCIOAnAv9ce4Jdcx5EvrY0iaUnMCMLJcSAAAj4icD760564Dv2ImOWJ7P0BGZkoYQYEAABPxH493rfmvGN5cdYegIzslBCDAiAgJ8IfLjhNPsC0IPI15fBjH4aShwGBEBANQJzd1/0wHfCIkMXHP7mUPai/ZnTtl8Q5vPpUcvwPaNqg4WKQAAE/ETgjLlcqjNXOaO/OTZpa9rxy6Vl1fXS9p27YpEWHIkrMFJSyAEBEAh+AnEufj09aPaBH09duXC1wmpvYOlFWgHNjEuwZmSBhxgQAIHgI1BoqU04U7jsUNaRzOI6G5MHpZ04X1AhXTO++vVRaaQ0B1dgpEyQAwIgoAcCF65SzDgCZtTD2KIPIAACnhLIuFopXTO+vPgIS31YM7JQQgwIgID2CFy6RjHj8EUwo/aGEi0GARBQjUBmEcWMwxYmshwAa0YWSogBARDQHoGs61XSs+mXYEbtjSRaDAIgoB6BbJoZX4w5zHIErBlZKCEGBEBAewQuF1dL14xDF8CM2htKtBgEQEA1ArklFDM+Px9mVI0wKgIBENAegfzSGumacci8Qyw9wdk0CyXEgAAIaI8A1YzPzYUZtTeUaDEIgIBqBK6U10rXjM/OPchyAKwZWSghBgRAQHsECmhmHDwHZtTeUKLFIAACqhG4aqmTrhkHzT7AcgCsGVkoIQYEQEB7BGrq7auTLq85lrs2Ofe75Lz1KXnxx/O2ny1k6QnMyEIJMSAAAsYiADMaa7zRWxAAARYCMCMLJcSAAAgYiwDMaKzxRm9BAARYCMCMLJQQAwIgYCwCMKOxxhu9BQEQYCEAM7JQQgwIgICxCMCMxhpv9BYEQICFAMzIQgkxIAACxiIAMxprvNFbEAABFgIwIwslxIAACBiLAMxorPFGb0EABFgIwIwslBADAiBgLAIwo7HGG70FARBgIQAzslBCDAiAgLEIwIzGGm/0FgRAgIUAzMhCCTEgAALGIgAzGmu80VsQAAEWAjAjCyXEgAAIGIsAzGis8UZvQQAEWAjAjCyUEAMCIGAsAjCjscYbvQUBEGAhADOyUEIMCICAsQjAjMYab/QWBECAhQDMyEIJMSAAAsYiADMaa7zRWxAAARYCMCMLJcSAAAgYiwDMaKzxRm9BAARYCMCMLJQQAwIgYCwCMKOxxhu9BQEQYCEAM7JQQgwIgICxCMCMxhpv9BYEQICFAMzIQgkxIAACxiIAMxprvNFbEAABFgIwIwslxIAACBiLAMxorPFGb0EABFgIwIwslBADAiBgLAIwo7HGG70FARBgIQAzslBCDAiAgLEIwIzGGm/0FgRAgIUAzMhCCTEgAALGIgAzGmu80VsQAAEWAjAjCyXEgAAIGIsAzGis8UZvQQAEWAjAjCyUEAMCIGAsAjCjscYbvQUBEGAhADOyUEIMCICAsQjAjMYab/QWBECAhQDMyEIJMSAAAsYiADMaa7zRWxAAARYCMCMLJcSAAAgYiwDMaKzxRm9BAARYCMCMLJQQAwIgYCwCMKOxxhu9BQEQYCEAM7JQQgwIgICxCMCMxhpv9BYEQICFAMzIQgkxIAACxiIAMxprvNFbEAABFgIwIwslxIAACBiLAMxorPFGb0EABFgIwIwslBADAiBgLAIwo7HGG70FARBgIQAzslBCDAiAgLEIwIzGGm/0FgRAgIUAzMhCCTEgAALGIgAzGmu80VsQAAEWAjAjCyXEgAAIGIsAzGis8UZvQQAEWAjAjCyUEAMCIGAsAjCjscYbvQUBEGAhADOyUEIMCICAsQjAjMYab/QWBECAhQDMyEIJMSAAAsYioBMzWiwWk8lkNpsr8AcCIAACXhMwm80mk8lisbj6B8HkakdQ5fPdMOEPBEAABNQjYDabXYlOG2Z0OBxms9lisXj9TwUqAAEQAIEKi8ViNpsdDoe2zeiq9cgHARAAAV8Q0Maa0Rc9R50gAAIg4IoAzOiKDPJBAASMSwBmNO7Yo+cgAAKuCMCMrsggHwRAwLgEYEbjjr0ue07u6BgwYICPOjhgwAByFB8dAtUGnADMGPAhUKcB4eHh5OMqSoSGht56661du3YdOnToxIkTz549q84hg7IW0neYMSjHRzONghk1M1TyDZUxI5EFSTz11FPp6enyFWp0L+kjzKjREQySZsOMQTIQ3jbDLTOaTKYWLVr88MMP3h41+MrDjME3JppsEcyoyWGTNlpoxvXr118W/GVlZaWkpCxZsuTxxx8n4uDlmJqaKq1K0zmkg1gzanocA954mDHgQ6BOA4RmPHDggKtKFy5cGBISQvTRv39/V5HIBwEjE4AZdTL6jGbkOO6jjz4iZjSZTCdPntQJAnQDBNQjADOqxzKgNbGbsbS09KabbiJynD59ekAbjoODQDASgBmDcVQ8aBO7GTmOe+KJJ4gZx44dq3i4oqKirVu3Llu2LCoqasGCBRcvXnRVpK6ubv/+/atWrZo1a9bMmTNjY2MTExPtdrurePn8kpKShISEFStWTJ8+fdq0aUuWLNm9e3dRUZF8Kfa9mZmZW7ZsiYmJiYqKio6Onj9//vr165OTk2tqatgrYYksKCjYsmXL119/HRUVtWjRog0bNuTk5LAUlInJz8/fsmXLggULpk+fvmLFipSUFJknx8jUg11UAjAjFYv2Mt0y42uvvUbMOHToUNJbUkl4eDifefjw4WeeeSYsLIzEm0ymefPmkSIkkZyc/NJLL7Vs2VIYyafbtm377rvvFhQUkGD5hM1m++abbx566CHhV6LCah944IGpU6devXpVWg8Jk7kCY7VaZ86c2b17dxIsSoSFhfXq1WvKlClURbLf6e1wONauXfvggw+K6uc3IyIiFi1aZLPZpL0Q5pCypEdHjx595plnQkNDyS4+0bFjx5iYGPhRSM/jNMzoMbrgKkikZjKZZK7A8I0eOXIk+VDJmPGLL76QfvykZqypqRk9ejSp0FWiVatWmzZtUqSWnJzcpUsXV5UI8ydOnCitjQQQj4hi8vPz7733XhImn8jMzBQV5ziO0YyFhYW9e/eWr99kMvXo0ePSpUvSo5AcUgPfo6ioKNE/VCSAT7zyyiv19fWkOBKeEYAZPeMWdKXcMqOrs2lSSXh4+Lx588hHLjw8/MUXXxw9evSgQYNuvfVW4Zrx+vXrjzzyCIk0mUwtW7bs27fvn//851GjRvXt21f4nWZISMjKlStl2K1fv7558+bC2po3b963b98RI0aMHj16yJAhnTt3Jns9MGN9ff19991HajCZTLfddtuAAQNee+21MWPGDBs27LHHHmvdujUJ8NiMubm5BCZfW5s2bQYPHsz34vbbbyeHMJlMd9xxx+nTp11hIZEDBgyYNWsW2ezRo8ewYcNGjx799NNPt2jRguSbTKbx48e7qg35jARgRkZQwR4m/BzKrxnLyspuvvlm8kGaNm0a6RuppGXLls2aNTOZTE888URycjIJ4DjOarWS82KHwzF48GBS1e9///tvv/3WarUK48vLyz/99FOy9mzRooUrCyQnJwu1+Ic//CE2Nra2tlZYG8dxZrN5/vz59913nwdmXLp0KWltly5dtm3bJj33dDqdqampEydOvPPOOz0zo91uF/7bc8sttyxYsKCuro50xG63r1mz5o477iCNiYiIqKqqIgHCBIm57bbbeIwvv/zyhQsXhDFlZWVvv/02iQwLC7t8+bIwAGl3CcCM7hIL0ngiNcWz6fHjx5OPkMlkOnHiBOmSsBKTyfSnP/1J/rxs5syZpKpHHnmkpKSEVCVKbNq0iXxpOHDgQNFejuPq6+uFR+/Xr19paak0jOQ4nc5r166RTZIg7aGeTb/wwgt8QLNmzajWI/VwHNfQ0ED9ElDxbHrBggWkGa1bt05KShJWS9Lp6elCOX788cdklzBBquITMuvB4cOHk+AJEyYIK0HaXQIwo7vEgjReqBWZNeOSJUuIoUwmU9++fYX9EVbSoUMHeTfV1tZ26NCB/yi2a9eusLBQWJU0/d5775HP7c8//ywK+Oabb8jeTp06yUhWVFC0SSqhmpGcSvfq1UtUkH1T3owOh6Nr166kGQsXLpSpefPmzSSybdu2lZWV0mASYDKZ+vfvL13kkiJpaWkkWDSyJAYJRgIwIyOoYA8TSk3668DU1NRly5b169ePfHJMJlPz5s1FZ8rCSj7//HP5Pq9cuZLURj2xFRXPzs6WiX/44YfJ3tjYWFFZ9k1SibwZO3fuzF6nKFLejAcOHCBtuPPOO2VExlf76KOPkvi4uDjRsTiOI3tNJtOOHTukAcIccvGqVatWwnyk3SUAM7pLLEjjhVITfpZcpZs3b75582ZRZ4SVKP6k+vXXXyeVMz655w9/+ANfZNCgQcJDl5aWkpVsu3btRN9UCiMV06RJVDOOGDGCBMyaNUuxNmqAvBmnTJlCDvG///u/1BqEmTExMST+73//u3AXnyZ7W7ZsKf/lBsdx5OsCk8nk6otL6SGQIyUAM0qZaDJHKDXyWXKV6Nu377lz56T9JJWEhYUpfgjvvPNOvv6bb745Oztb8AgLl8mHHnqIL0Lul+TbkJCQQJo6ZMgQacPYc0g9VDMKz15NJlO/fv1WrFih+D2A6OjyZhR+2cfyNKMTJ06QNj/00EOiYwnXjPfff790ryjnjTfeILVduXJFtBeb7ARgRnZWQR1JpEY+GCQRGhrarl278PDwIUOGfPHFF6dOnXLVE1LJbbfd5iqGz3c4HORyMzkQe6JNmzbC+pcvX07Kfvjhh8Jd7qZJPVQzOp1O4bKRBHfr1m3s2LHLli1jWfzKm1F4Vfr8+fOK7a+uribN+P3vfy+NJ3uffPJJ6V5RzltvvUXicXlaBMetTZjRLVzBG0ykpnhtWqYPpBLRmk5apKSkhHwCPUsI65w+fTqpZMqUKcJd7qZJPVQzchxnt9s/++wz0Q2ApJTJZOrWrdukSZNkrj7Jm/Gee+4htTGu2vgbpPjnwkn7S2pz1SNhEZhRSMObNMzoDb0gKkuk5h8zFhYWkk+sZwkhO6EZp06dKtzlbpo0Rt4j165dmz179pNPPim8g5KUNZlM7dq1i4+Ppx5d3ow9evQg9ZAbP6n1kExixpYtW5JMkiC1yfeIj4cZCTcvEzCjlwCDpbifzVhfX08+sREREV5SWLFiBanNp2fT0nZardakpKTZs2cPHz78lltuIc0wmUwhISHULwrlzSg8m2Y5N2c/m4YZpcPnuxyY0Xds/Vqzn83Icdytt97Ke+Smm26i3hHN3v9t27YRJT3//PPsBaWRpB4Wj4iK19fXx8fHR0REkEo6d+4sve1G3ozCKzA//vij6BDSzZ9//pkcTv4KDEuPsGaUEvYsB2b0jFvQlfK/GV988UXykd69e7c3RMrKysj1nHbt2ileFpc5FmkSi0eo9ZSXl3fq1InUc/z4cVGYvBmFd+3I/F6F1Llw4UJyLPm7dlh6BDMSsF4mYEYvAQZLcf+bUXgj3siRI70EoXjDM2P9xDIsHnFV5wcffEDq2bBhgyhM3ozCO72pS05RbcLn8cjf6c3SI5hRhNfjTZjRY3TBVdD/ZiwvL2/fvj0xyN69e70hEhsbS6rq3LlzWVmZZ7WRSlg84uoQ48aNI/VIz4jlzSj6deDXX3/t6igcx33//ffkQG3btq2oqJAGkwCWHsGMUoCe5cCMnnELulL+NyPHcVFRUeRz2759+8TEREUuDQ0NW7Zskd4TY7fb7777blLbU089JS9HD54oUVNTExMTQ/1tsrDZVVVVQpjSB5jLm5HjuPnz55OOtGnTJiUlRVg/SWdkZPzXf/0Xifzoo4/ILmGCBMCMQiy+TsOMvibsp/qFH2aZJ0rIt4ZUong/I1+P3W5/7rnnyEc3LCzsvffey8jIkB7FZrMdPXp0/Pjx/CGoNyGnpqYKbzPs0qVLXFyc8OFdfLVms3nBggV//OMfqT/WJo2ReqS8vNxkMrVt2/add97ZunUrVZEpKSnC09vHH39c2hdFM9rt9j59+pCWtG3bdvHixcKfPNrt9rVr15LncfA3UVLbI/wNjLRH0rZhzShl4lkOzOgZt6ArRaTmn/sZSf8tFkvfvn2JBfhEp06dhgwZMnr06FGjRr3wwgsPPPCA8Pm1JpOJakaO4zZu3Ci6wbBFixb9+vV79dVX+We+kl9em0wmz8xImhoSEtK9e/chQ4aMGjVqzJgxzz//PPm9Ix/TqlWrs2fPkp6ShKIZOY7LyckRPmSXN/Kzzz47evTo559/XvjwMf7puTJvcCQNhhnJEPghATP6AbI/DhEoM3IcZ7PZPvzwQ/lH8JOPt8lkatWqlcxPlZOSkkROEZYVpr00o7AqabpTp06uzoJZzMhxXEFBQa9evaQ1i3K6d+9OXWWTSUPiYUbCxA8JmNEPkP1xiACake9ednb2P//5z44dO5JPsihx++23jxgxYtWqVYrPgLFarTExMeRZiqJ6QkJCHnnkkZkzZxYXF0vJkmCpR5xO56FDh8aPH9+rVy/ysxMSTxI9evSIjo6mvhuLPxyjGTmOczgccXFxPXv2JJULE927d4+JiVG8RYkUkfZI2n2cTUuZeJYDM3rGDaVcEkhPT4+Pj1+8eHFUVNSMGTOWLFmSkJCQlZXldDpdlnGxg38Z6ZIlS/iqli1btnfvXo8fais8SG1tbWpqanx8/Pz58/lXqi5atGjr1q25ubnCMGQZe3EAAADmSURBVLXSV65c2bx5M88kJiYmPj4+OztbrcpRjy8IwIy+oIo6QQAEtE0AZtT2+KH1IAACviAAM/qCKuoEARDQNgGYUdvjh9aDAAj4ggDM6AuqqBMEQEDbBGBGbY8fWg8CIOALAjCjL6iiThAAAW0TgBm1PX5oPQiAgC8IwIy+oIo6QQAEtE0AZtT2+KH1IAACviAAM/qCKuoEARDQNgGYUdvjh9aDAAj4ggDM6AuqqBMEQEDbBGBGbY8fWg8CIOALAjCjL6iiThAAAW0TgBm1PX5oPQiAgC8IwIy+oIo6QQAEtE3g/wOXpwP9UmQMeQAAAABJRU5ErkJggg==;" parent="1" vertex="1">
                    <mxGeometry x="604.82" y="260" width="80.32" height="80.32" as="geometry"/>
                </mxCell>
                <mxCell id="202" value="" style="shape=image;verticalLabelPosition=bottom;labelBackgroundColor=default;verticalAlign=top;aspect=fixed;imageAspect=0;image=data:image/png,iVBORw0KGgoAAAANSUhEUgAAAbMAAAGzCAIAAAAqj27QAAAAAXNSR0IArs4c6QAAIABJREFUeAHtnQt0FOXduEO0oh4r6jntKT31pNjPVm1tP6CtglaFUq22ilahWJXWA23Vf2/WS7ijogG5K3dBbqKoqCCGJISEhFwgIQFyIQnkniwhJCGwSciFJLv5n7Ay37Lv7s7uzszO7syTM0dmZ9/39/7e5zd5fDe7OxPRxw8EIAABCFxKIOLShzyCAAQgAIE+zMhJAAEIQMCVAGZ0JcJjCEAAApiRcwACEICAKwHM6EqExxCAAAQwI+cABCAAAVcCmNGVCI8hAAEIYEbOAQhAAAKuBMLDjDabzWKxWK3WFn4gAAEIKCZgtVotFovNZnM14sXH4WFGi8USwQ8EIAABVQlYLJaLJnT9NzzMaLVaIyIiLBaL4v9VEAACEIBAi2OxZbVaXY148XF4mLGlpSUiIqKlpeVi2vwLAQhAIHACskrBjIHDpScEIBCmBDBjmBaOtCEAAQ0JYEYN4RIaAhAIUwKYMUwLR9oQgICGBDCjhnAJDQEIhCkBzBimhSNtCEBAQwKYUUO4hIYABMKUAGYM08KRNgQgoCEBzKghXEJDAAJhSgAzhmnhSBsCENCQAGbUEC6hIaALAZvNvj6jcuTc5KfWZj2+MlPa/rAy03l7bEWGy/boigznbezyDOftkeUZl2zL0h9x2h5elu68/f7ddOftd++mOW8PvZPmvD24NM1l++3SNOftgSX7vGz3L97nvP1mcarzNmZRqvM2eVOOL0XBjL5Qog0EwoZA8cmWn8xKiIqOZXNL4P7F+3ypJWb0hRJtIBAeBE5aO9zqgIMSAcwYHqcyWUJALQK9Nrv0+8+OJwK/WZzqC3DWjL5Qog0EwoDA8r1lnnTAcYkAZgyDU5kUIaAWgfbzPdIvPzteCGBGtU454kAgDAgs3VPqRQc8JRHAjGFwNpMiBNQi8JvFqdIvv/PO3LiS4pMt0lZS3+K8HatvddmOn2p13kpPtTpvZQ2tl25tZQ3/t5U3tjlvFY1tzltl0znnrarpnMtWffqc81Zzut15q21u97JZzrQ7byfOdjhvdWc7pK2hpdMX5vyd0RdKtIFASBMoa2h1tqG0v3l/VUjnHcLJYcYQLg6pQcA3AhsyKiUbOu/YbHbfAtDKlQBmdCXCYwiEHYHnPsh1FqJjf9LGg2E3kdBJGDOGTi3IBAKBELDb7W6/9JJZ3hRIOPpcIIAZOREgEN4EyhvbxAXjj2bEne+xhffEdM0eM+qKn8EhoJhAXMFJ0YwT1hxQHNjUATCjqcvP5A1AwO1XX97aVWyAqek4BcyoI3yGhoAKBP77SZ64Zvwou0aF0CYOgRlNXHymbggC41bvF82YVXHaEJPTbRKYUTf0DAwBVQiMnJssmtFypl2V4KYNghlNW3ombgQCnd29ohb/Z9quXj7jray8mFEZP3pDQFcCVU3nRDOOWpiia1JGGBwzGqGKzMG0BLIrm0UzPrYiw7RA1Jo4ZlSLJHEgoAOBfccbRTNGRcfqkIqxhsSMxqonszEZgU9yakUzPr0uy2QY1J8uZlSfKREhEDQCq1PLRTMu3H0saAkYdSDMaNTKMi9TEHg7vkQ047r0SlNMXstJYkYt6RIbAh4IdHb3HqtvLaprOVpnLTxhzbeczas9e7jmTG71mdzq5oNVzdmVzQcqTmeWN2WWNaWXNn1ysHZXwcnY/JNf5dftzKv78sK248gJUYtR0bGf5Vo8DMthXwlgRl9J0c6FgM1mP99j6+zubevqsXZ0N58739ja5XI9eulq9Y6r2EtXt3dc9V66FL7jEvlO183vv6S+dJF9x8X3pYvyOy7WL12+v6iuxeGXo3VWh2UKT/S7xrEVWKwFln7vOLa82n4BHbm4Ha45c7jmzKGLW271mZyq5vjC+i1Z1R8frPkou+aDA9Wb9letz6hcm1axZl/5azuPPrvh4KLE44t2H1u4+9iChGNvx5fMiy+ZG1cSs6v4rV3Fb8YWzfmq6PWdRa/tPDr7y6OzdhTO3FE4Y3vhtC8K7luQEhUde8dbSW5dpu7B5JJTLsXiob8EMKO/xEK0fVlD67z4kkdXZIxemDJqYcqoBSn3Xdjunb/3nvl7f/V2/3b328l3zevfRs7t30bEJI2ISbozJumOt5J++daeX7615xdv7vn5hW34nD3D5yQOe6N/G/pG4v++vvtnF7afvrb79tkJ6v4aE011AolFmFHp7ylmVEpQl/52u91ms/f02rp7bV09vX9Zn636bxcBw5dASX2LLqelkQbFjCFXzZyq/s/ujpyb/ONZCbfNjL9lRvwPp8fdPD3uf6btumnqriFTYsP3N5bMg0PgzLnzIXdah1tCmDG0KrZw97Hg/PIwilEJjFu9P7TO6fDMBjOGUN1SPXyfwai/w8xLdQJ3xiRVNLaF0DkdtqlgxhAq3cPL0lX/VSFgiBN4cGnaH9fsn7DmwJ/WHnhqbdbT67Imvp/95/XZz244OGnjwUkbc/66Kedvm3Oe+yB30sacp9dlvbItL/qz/OjP8qd8nj/l84KpX/Rv074omLWjcFuu5XRbVwid0OGcCmYMlerl1Z4N8d9hT+n94s09d8Yk3TUv+Z75ex2fTYmKjn1gyb7fLk377dK0By9uD72T9tA7ab979+vt9++m//7d9IeXfb09siy9f1ue4djGLs8Yuzzj0RVfb4+tyHhsRcYfVmY6tsdXZj6+MvOJVV9v41bt799Wf72NX71//Or9f1zz9TZhzYEJaw48+d7X25/Wfu2gp9ZmOUz09Lp+Hzm2Z97Pfub97Jc+zbszJmnSxoMxu4rnxZcsSDi2KPH40j2ly5JLl+8t+9vmnEW7j61Lr1yfUbkho3JjZtXm/VWbD1R/cKB6S1b1R9k1W7NrPj5Y80lO7ac5tdtyLZ/lWr44bNl++MSOIydSjjUcrjnT0tltt3Mn6FD51XObB2Z0i0WHg5684+/x//fhoXpr56mWzoaWzobW/q2xtauprev0ha353PkzF7az7eet7d3Wjv6tpbO7tbO7raunravnXFdP+/n+reN8b2f311tXT+/5nv73wbt7bT29tl6bvddm53dbh7OEIYNFADMGi7TXcU61dHox4E1Td/3PtF03T4v74fS4W2bE3zoz/sezEn4yO+H22Qk/e3330AufOvz5m3ue3XBwZ16d13F4EgIQ8IkAZvQJk9aNcqvPuDXjO0mlWg9NfAhAQCSAGUUmOhxJOdbg1oxVTed0yIYhIWB6ApgxJE6BT91dZe+Xb+0JieRIAgLmI4AZQ6Lm7yaVimvG5XvLQiI5koCA+QhgxpCo+awdhaIZP8ziZuohUR2SMCEBzBgSRX9hyyHRjLH5J0MiOZKAgPkIYMaQqPmIGDeX7UsvbQqJ5EgCAuYjgBlDoubigjEqOvZonTUkkiMJCJiPAGYMiZq7NWNtc3tIJEcSEDAfAcwYEjV3a8aO870hkRxJQMB8BDCj/jXv7O51a0b9MyMDCJiVAGbUv/JlDW2YUf8ykAEEnAhgRicYOu3uPlovmvGmqbt0SodhIQCBPsyo/0mwKrVcNGNUdKz+mZEBBMxKADPqX/mNmVWiGX8yK0H/zMgAAmYlgBn1r/yyZDdfmp68KUf/zMgAAmYlgBn1r/yr2/LFNSNfmta/MGRgYgKYUf/iP/neAdGMBypO658ZGUDArAQwo/6VF7UYFR3LvTH1LwwZmJgAZtS/+G7NeK6rR//MyAACZiWAGXWufE+vTTTjD6fH6ZwWw0PA3AQwo871b/Bw10Cd02J4CJibAGbUuf7FJ1vENSMf89a5KgxvegKYUedTILOsSTTjM+9n65wWw0PA3AQwo87135lXJ5rxxY+P6JwWw0PA3AQwo871n59QIppxzldFOqfF8BAwNwHMqHP9X/40TzTjO0mlOqfF8BAwNwHMqHP9Y3YVi2aM/ixf57QYHgLmJoAZda5/9GduvjS9Jata57QYHgLmJoAZda7/cx/kimvGvccadE6L4SFgbgKYUef6P7U2SzTjwapmndNieAiYmwBm1Ln+I2KSRDMeP9Wqc1oMDwFzE8CMOtf/rnnJohnrznbonBbDQ8DcBDCjzvX/+Zt7RDO2dHbrnBbDQ8DcBDCjzvX/8awE0Yy9NrvOaTE8BMxNADPqWX+bzf79KbEuZuQSZHqWhLEhcIEAZtTzRGjp7HbRYlR07C/e3KNnTowNAQj0cb9pXU+CmtPtohnHLErVNSkGhwAEMKOu50BZQ6toxj+szNQ1KQaHAAQwo67nQFbFadGMXJxR15owOAT6CfB3Rj3Pg4Sj9aIZn9+Sq2dOjA0BCGBGfc+B1anlohlf+jRP36wYHQIQYM2o5znw8cEa0YwPLNmnZ06MDQEIsGbU9xxYl14pmvGFLYf0zYrRIQAB1ox6ngPvJJWKZlyRUqZnTowNAQiwZtT3HIiJc3NB7037q/TNitEhAAHWjHqeAzO2F4prxk9zavXMibEhAAHWjPqeA//9xM3tsWLzT+qbFaNDAAKsGfU8B26eHieuGZOKT+mZE2NDAAKsGfU9B4a9kSiaMb20Sd+sGB0CEGDNqOc58PQ6NzeBSSxizahnURgbAnw7UOdz4PfvpotrxgKLVee0GB4CpifAmlHPU0DUYlR07LF6bo+lZ1EYGwKsGXU+B26aukuUY3ljm85pMTwETE+ANaOep8CvF6WKZqw53a5nTowNAQjw3rS+58A98/eKZmxs7dI3K0aHAARYM+p5DoyISRLNaO3glqp6FoWxIcDfGXU+B4bPcXOz6Y7zvTqnxfAQMD0B1ox6ngI/me3mZtM9vTY9c2JsCECAvzPqew6I3w78wdRd+qbE6BCAAK+m9TwH7Ha7+EfG22bG65kTY0MAAhcI8GpatxOhq6dXNOP/vr5bt4QYGAIQuEgAM14kEfR/re3dohnvjEkKeiIMCAEIuBLAjK5Egva4oaVTNOO98/cGLQEGggAEPBHAjJ7IaH68trldNONvFqdqPjADQAACcgQwoxwhzZ4vb2wTzfi7d9M0G5DAEICArwQwo6+kVG93tM4qmvHxlZmqD0RACEDAXwKY0V9iqrXPrW4Wzfj0uizVBiAQBCAQKAHMGCg5xf3SS5tEM07elKM4MAEgAAGlBDCjUoIB948vrBfN+O+thwMOSEcIQEAtAphRLZJ+x9l++IRoximfF/gdiA4QgIDaBDCj2kR9jrc1u0Y04xtfFfkcgIYQgIBWBDCjVmRl465LrxTNuGj3MdmONIAABLQmgBm1Juwx/vK9ZaIZlyWXeuzAExCAQLAIYMZgkRbG+fP6bNGM7+2rEBpyAAIQCDYBzBhs4tJ4z2/JFc34fnql1IAdCEBALwKYUS/yfa/tPCqacdaOQt0SYmAIQOAiAcx4kUTQ/532RYFoxs9yLUFPhAEhAAFXApjRlUjQHr/8aZ5oxtj8k0FLgIEgAAFPBDCjJzKaH//X1sOiGXcfrdd8YAaAAATkCGBGOUKaPf/3zW7egUkrbdRsQAJDAAK+EsCMvpJSvd3dbyeLa8asitOqD0RACEDAXwKY0V9iqrUXtRgVHXuk9qxqAxAIAhAIlABmDJSc4n4PLk0T5Xio5oziwASAAASUEsCMSgkG3P+hd9yYsaKxLeCAdIQABNQigBnVIul3nNELU8Q1Y93ZDr8D0QECEFCbAGZUm6jP8e6a5+YdmOZz530OQEMIQEArAphRK7KycYfP2SOuGc919ch2pAEEIKA1AcyoNWGP8UUtRkXH9vTaPHbgCQhAIFgEMGOwSAvjiGb8wdRdQisOQAACOhDAjDpA7+vrs9nsohmjomP1yYZRIQCBSwlgxkt5BOtRZ3cvZgwWbMaBgN8EMKPfyFTp0NLZjRlVIUkQCGhBADNqQVU+5um2LtGMd7+dLN+TFhCAgPYEMKP2jN2NUNvcLppx9MIUd205BgEIBJsAZgw2ccd4NafdmJF3YPQpBqNCQCCAGQUkQTlQ1tAmrhkxY1DYMwgE5AlgRnlGWrQoPtkimvEPKzO1GIuYEICAvwRC1IxFRUV+zUR2Gn5FC0LjvNqzohknrDkQhKEZAgIQkCUgq5QI2RDqNjh+/PiECRMuv/xyv8LKTsOvaEFofLCqWTTjM+9nB2FohoAABGQJyColeGasqKiYOHHi5ZdfPmDAgMjISNnUnRvITsO5cSjsZ5Y1iWactDEnFHIjBwhAQFYpwTBjdXX1pEmTrrjiisjIyAEXfgxvxpRjDaIZn9+SyxkJAQiEAgH1zVhcXLx79+6tW7du3749Pz/fZvN28ZgTJ04899xzAwcOdHaiGdaMiUWnRDP+a+vhUDgnyAECEFDNjFardcqUKd/97ncjL/351re+NX369LY214v4t7W1vfLKK1dddZWLEwcMGDBq1KjU1FS/aiM7Db+iBaHx5gPVohlf+jQvCEMzBAQgIEtAVik+vZrOz88fPHiw5DjHK2Lpv5GRkbfeemttba2UTXJy8o033ii1l3Z+/etfp6WlSc1835Gdhu+hgtNyQ0alaMZ/fMSaMTj4GQUCMgRklSJvxrq6uhtuuEH6++ClS8b+R46nhg4d2tPTf8HqFStWON5mcbxqdjw7ZsyY9PR0mWQ9Py07Dc9d9Xnm05xa0Yw/f3OPPtkwKgQgcCkBWaXIm/Hxxx93OE6SoLRalHTpaLBy5crt27c7HxwwYMD999+fman0E86y07h01vo/+ii7RjTjK9t4Na1/acgAAn19fbJKkTFjbW3tZZddJjlx9OjRO3fubGxs7OnpaW5uTkxMfOyxxyRv3n777TfeeKO0VBw2bFhKijrXUJCdRqgVe/P+KtGMMXHFoZYn+UDAnARklSJjxgULFkji+89//uMW4qJFi6Q20oLxjTfe8P62tdtQng7KTsNTR72Ov5/u5u+MCxKO6ZUP40IAAs4EZJUiY8bx48c7rHfbbbd5Md2YMWOkpWJkZOR7773nnITyfdlpKB9C3Qhr9pWLa8Yle46rOwrRIACBwAjIKkXGjLfeeqtDeQsXLvSSwbZt26Rl4+jRo720DOwp2WkEFla7XsuSS0UzLt9bpt2IRIYABHwnIKsUGTN++9vfdijP+zvLtbW1khnXr1/ve34+tpSdho9xgtZsceJx0Yxr0yqClgADQQACXgjIKkXGjAMHDnQor7S01Msw58+fl/7CeOjQIS8tA3tKdhqBhdWu19vxJaIZN2ZWaTcikSEAAd8JyCpFxoyS72pqaryPKrWsrKz03jKAZ2WnEUBMTbtM3pQjmvHDLBmGmqZEcAhAQCIgqxT1zSjrUCk533dkp+F7qOC0HLUwRTTjpzn/9zWh4KTBKBCAgFsCskrBjG65KT049YsC0YyLE3lvWilY+kNAFQKYURWMfgd5ZVueaMYvDlv8DkQHCEBAAwKqmdH5ghFu85T+zijb0m137wdlp+G9e/CfffGTI6IZ4wvrg58JI0IAAiIBWaXIv5p2XELixhtvHOL1RzKjbMshQ4bcdNNNYq5ejshOw0tfXZ7650eHRTPuKTqlSzIMCgEIuBCQVYpPZnRYT8X/Gv6a3g8vSxfNmHKswaU8PIQABHQhoI4ZxSuPKTni+ICkXzhkp+FXtCA0FrUYFR2bXtoUhKEZAgIQkCUgqxT5NaOKS0UplOHXjH9cs1+UY8JR/s4oe8bSAALBIKDUjKma/fg1e9lp+BUtCI2fXpclmjG7sjkIQzMEBCAgS0BWKTJrRtkBgtNAdhrBScP3UZ5874Boxrzas75HoCUEIKAdAVmlYEZN4I9b5ebVdOEJqyaDERQCEPCTAGb0E5hKzR9ZniGuGUvqW1QKTxgIQEARAcyoCF/AnUUtRkXHljW0BhyQjhCAgIoE1Ddjb29vdXV17oWf6urq3t5eFdP1FEp2Gp466nXcrRkrGl3vyq1XeowLAZMTkFWKH39nTElJefTRRwcNGuT8YcZrr7127NixSUlJmoKWnYamowcQ/IEl+0Q5lmPGAFDSBQIaEJBVik9m7OrqGj9+vEOI0mcSpR3H8ccff7yzs1ODKfSHlJ2GRuMGHHbMolTRjCfOdgQckI4QgICKBGSVIm9Gm802evRo6caqzgtGZ1dGRkbed999Xu6ipWRWstNQElyLvm6vz1hv1er/HFpMgZgQMDABWaXIm3HevHnSPV4kP0oLRukpx05MTIwWNGWnocWgSmLet8DNlWsbWjGjEqj0hYBqBGSVImPGzs7O66+/XlobDho06OWXX05MTCwpKSkuLk5MTHz55Zevu+46hxYHDBhw3XXXdXSo/5pRdhqqAVMp0K/e3iu+mm5q61IpPGEgAAFFBGSVImPGDz74QFoVDh8+/OTJk2I69fX1w4cPdywnIyMjN2/eLLZReER2Ggrjq979rnnJohnPnDuv+kAEhAAEAiAgqxQZM/71r391vHAeNGhQXV2dpwzq6uqk96wnT57sqVnAx2WnEXBkjTqOiEkSzWjt6NZoOMJCAAJ+EZBViowZhw0b5lgzvvjii94HfvHFFx0thw4d6r1lAM/KTiOAmCp26e61JZec2nyges2+8uV7yyascfOl6ajo2LauHhUHJRQEIBAwAVmlyJhx8ODBDt/Fx8d7TyIhIcGxuhw8eLD3lgE8KzuNAGIq7FLb3P52fMkfVmaKa0NPR9rPY0aF1OkOAXUIyCpFxoxXX321w4xFRUXeMyouLnaY8eqrr/beMoBnZacRQEwlXWZ/edST/rwc7+wOxveFlMyLvhAwCQFZpciY0SG7yMhI2btIV1dXS41Vhys7DdVH9BIw4Wi9F/15eaqn1+YlLE9BAAJBIyCrFMzody2Gz0n0oj9PT/12aZrfI9EBAhDQhgBmVJ/rU2vdXK/bkxCl45/k1KqfChEhAIGACGDGgLB57TTW3bUXJQO63dl8oNprSJ6EAASCSgAzqo/b7XeiJSHOjStZnVq+Nq1ibVpFWmljQwvfCFS/BESEgEICKpjR8dXAESNGjPL6M2LECOkdGK8N+58cPXq0XxOTnYZf0RQ2/sWbeyQPSjt5tWd5g0UhWLpDIGgEZJUi/w6M9LU/8So7LkccZnR8ysflKeeHjgZ+IZCdhl/RFDa+ZUa8JERpx2azKwxLdwhAIGgEZJXikxmdvaZ8P6zN2NNrk2wo7fx4VkLQKspAEICAcgIqmFFaCaq4ExkZ6dfcZKfhVzQljU+3dUlClHZGxGh7SXMlCdMXAhAQCcgqRWbNuFGzHzFXL0dkp+Glr7pPVTS2SUKUdh5Ysk/dUYgGAQhoSkBWKTJm1DQ534PLTsP3UApbphxrkIQo7Tz53gGFYekOAQgEk4CsUjCjf+XYW+LGjHe/nexfFFpDAAK6ElBqxmcv/jQ3N+s4EdlpBC23r/LrpKWitDP0jcSgJcBAEICAcgKySpFZM0ofwZG9ooTyXL1EkJ2Gl77qPrU1u0YSorQza0ehuqMQDQIQ0JSArFLkzeiQI2Z01GldeqUkRGlnQcIxTatIcAhAQF0CmFFdnn3L95ZJQpR2lu8tU3kYwkEAAloSwIwq042JK5aEKO1szKxSeRjCQQACWhLAjCrTnbWjUBKitMMVxlSmTDgIaEwAM6oM+NVt+ZIQpZ2deR7vqqjy8ISDAATUIIAZ1aDoFOO5D3IlIUo7KccanJqwCwEIhDoBzKhyhf6yPlsSorSTXannhz1VniHhIGACAphR5SKPX71fEqK0U3jCqvIwhIMABLQkgBlVpvvQO2mSEKWd2uZ2lYchHAQgoCUBFczouCCj7DW9Za/j7dwgfK/pPXphiiREaafubIeWRSQ2BCCgMgF1zCh9R1D5ZWulK4T7NVHZafgVTUnjkXOTJSFKO83nziuJSV8IQCDIBGSVIv/tQMllqmhRiuYXCNlp+BVNSeNhb7i52XRnd6+SmPSFAASCTEBWKb6aUcULeof13Q5unenmJjB2OzeBCfKJzXAQUERAHTNGRkYuXLhQ3ct7+zUt2Wn4FS3gxjabfciUWOlFtGPnRzPiAg5IRwhAQBcCskqRXzNyrR2pcm1dPS5ajIqOHT5nj9SAHQhAICwIYEY1y3SqpVM0473z96o5BrEgAAHtCWBGNRm7vT3Wg0vT1ByDWBCAgPYEMKOajAtPWMU147hV+9Ucg1gQgID2BDCjmoyzKk6LZpz4fraaYxALAhDQngBmVJNxYtEp0Yz/2npYzTGIBQEIaE8AM6rJ+IvDFtGMUz4vUHMMYkEAAtoTwIxqMt6YWSWa8c3YIjXHIBYEIKA9ARXM6PhSIPcO7Ovre31nkWjGRYnHta8jI0AAAmoSUMGMfNJbKsj8hBLRjCtSuHGgRIgdCIQHAaVmrL7409ur50UTZKcRnGrM/vKoaMYle1gzBgc/o0BANQKySpH5dqBqiSgLJDsNZeF97f3iJ0dEM36Vz+2xfAVIOwiECAFZpWBGPyr11005ohnTShv9CEFTCEAgBAhgRjWLMGHNAdGMh2vOqDkGsSAAAe0JYEY1GT+yLF00Y+mpVjXHIBYEIKA9AcyoJuPfLE4VzWg5w+2x1IRMLAgEgQBmVBPyL9/aI5qxtbNbzTGIBQEIaE8AM6rJWNRiVHRsd69NzTGIBQEIaE8AM6rJWDTjTVN3qTkAsSAAgaAQwIyqYbbZ7KIZo6JjVRuAQBCAQLAIYEbVSJ9zdxMYzKgaXwJBIIgEMKNqsBtbu1gzqkaTQBDQlQBmVA1/VdM50YwPLNmn2gAEggAEgkUAM6pAuu5sx5I9x0UtRkXHPrEqU4UBCAEBCASXAGZUyntdeuWPZsS51WJUdOxf1nMTGKWE6Q+B4BPAjIqYR3+W78mJjuMvfnxE0QB0hgAE9CCAGQOnXlLf4l2LUdGxy5JLAx+AnhCAgE4EMGPg4BfuPubdjDdPjytvbAt8AHpCAAI6EcCMgYMftTDFuxl3FZwMPDo9IQAB/QhgxgDZp5c2edLi8Dl7pm8vaOvqCTA03SAAAb0JYMZAKpBXe9aTFhtaO+12eyBB6QPLXBIKAAAQgUlEQVQBCIQMAcwYSCkeWZ7h1ow/e313IOHoAwEIhBgBzOhrQVo7u8saWpNLTrl1ouPgxPf59KKvPGkHgVAmgBnlq5NU7M2GzqJMLjklH44WEIBAyBPAjN5KZLPZR8QkObvPy/7yvWXeYvEcBCAQPgQwo8datXR2e/Ggy1Nbsqo9BuIJCEAg3AhgRo8V+9tmNzePdhGi4+FPX9t9js/oeATJExAIPwKY8ZKanWrp/DCrJiau+Pfvurk/qlst3jYzPt9y9pIoPIAABMKcAGbsL6DNZn9gyT63d/5za0Pp4AsfHurs7g3zc4D0IQABVwKYsZ/I0DcSJdnJ7vzu3bS/bc5ZlVpu7eB2qa7nE48hYAwCmLHv05xaWRtKDYxRdWYBAQh4J2B2M9rt9ltnxkvi87LzoxlxPdw52vvZxLMQMAoBs5sx9XijFxs6P/XBAT6XY5SznnlAQI6A2c0456siZ/152l+RUsZ1IuTOJZ6HgHEImN2Moz1cY/H5LbkrUsq+zKs7WNXca+PaOcY545kJBHwhYGozVjS2uV0k1pxu94UdbSAAAaMSMLUZl+8tE804akGKUYvNvCAAAR8JmNqM//zosGjGuXElPrKjGQQgYFQC5jVjWYP7l9J7SxqMWmzmBQEI+EjApGbcX37a08cYK5vO+ciOZhCAgFEJmNGMdrv9/sX7xNfRjiN858+o5zrzgoDvBMxoRk9vSUdFxw6ZEstndHw/e2gJAaMSMKMZM8o83hB13Or9Rq0084IABHwnYEYzfphV4/al9JApsbuP1vvOjpYQgIBRCZjRjNO+KHBrxvhCtGjU85x5QcA/AmY04/yEEtGM07cX+EeO1hCAgHEJmNGMr2zLE824Zl+5cavMzCAAAf8ImNGMkza6ufVV6vFG/8jRGgIQMC4BM5px/Or94poxr5a7XBn3NGdmEPCTgBnN+PAyN/cFLGto9RMdzSEAAcMSMKMZR85NFteMJ852GLbITAwCEPCTgBnNKGoxKjq2pZMbAfp57tAcAsYlgBljHaLs5u5Xxj3LmRkE/CVgRjP+YOoucdnoLzjaQwACBiZgOjPabHZRi1HRsQauMVODAAT8JWA6M3Z294pmvG1mvL/gaA8BCBiYgOnMaO3oFs14x1tJBq4xU4MABPwlYDozNrV1iWbk1bS/5w3tIWBsAqYzY93ZDsxo7HOa2UFAOQHTmbGq6ZxoRu6kqvxMIgIEjETAdGY8fqpVNOPY5RlGKipzgQAEFBIwnRkLLFbRjE+sylTIke4QgICRCJjOjIdrzohmfPK9A0YqKnOBAAQUEjCdGXOqmkUzPvN+tkKOdIcABIxEwHRmzKo4LZrx2Q0HjVRU5gIBCCgkYDozZrq7perkTTkKOdIdAhAwEgHTmXHf8UZxzfj3zblGKipzgQAEFBIwnRl35tWJZnzhw0MKOdIdAhAwEgHTmfGTnFrRjPyd0UjnNHOBgHICpjNjfOFJ0YxDpnAVMuXnEhEgYBwCpjPjV/luXk1P2sg7MMY5p5kJBJQTMJ0Zdxw5Ia4Zp3xeoBwlESAAAcMQMJ0ZPz9kEc04Y3uhYSrKRCAAAeUETGdGt+/AzP7yqHKURIAABAxDwHRm3LS/SlwzzvmqyDAVZSIQgIByAqYz46vb8kUzxsQVK0dJBAhAwDAETGfGDRmVohmfWptlmIoyEQhAQDkB05lxXbobM76whe/AKD+XiAAB4xAwnRnXplWIa8bFiceNU1JmAgEIKCZgOjOuTi0XzfhOUqlikgSAAASMQ8B0ZlyRUiaacfneMuOUlJlAAAKKCZjOjMuSS0UzrkjBjIpPJQJAwEAETGfGd5LcmHF1armBaspUIAABpQRMZ8bFicfFNePatAqlIOkPAQgYiIDpzLhw9zHRjOvSKw1UU6YCAQgoJWA6M85PKBHNuCEDMyo9k+gPASMRMJ0ZY+KKRTNu3l9lpKIyFwhAQCEB05lxzldFohk/yq5RyJHuEICAkQiYzoyzvzwqmvGTg7VGKipzgQAEFBIwnRln7igUzbgt16KQI90hAAEjETCdGad9USCa8YvDmNFIZzVzgYBSAqYz45TP3VyfcceRE0pB0h8CEDAQAdOZ8ZVteeKa8av8OgPVlKlAAAJKCZjOjP/9xI0Z4wpOKgVJfwhAwEAETGfGUQtTxDVjwtF6A9WUqUAAAkoJmM6MP5oRJ5pxT9EppSDpDwEIGIiA6cz4wpZDohn5pLeBTmmmAgEVCJjOjH/fnCuaMfV4owosCQEBCBiFgOnMOHlTjmjGjLImoxSUeUAAAioQMJ0ZJ208KJoxsxwzqnAyEQIChiFgOjP+ZX22aMasitOGqSgTgQAElBMwnRmfed+NGXOqmpWjJAIEIGAYAqYz41Nrs8Q146GaM4apKBOBAASUEzCdGZ9874BoxiO1Z5WjJAIEIGAYAqYz4/jV+0UzFlishqkoE4EABJQTMJ0ZH1+ZKZrxaB1mVH4uEQECxiFgOjOOXZ4hmvFYfatxSspMIAABxQRMZ8aHl6WLZixraFNMkgAQgIBxCJjOjA8uTRPNWNV0zjglZSYQgIBiAqYz4wNL9olmrG1uV0ySABCAgHEImM6Mv16UKprxpLXDOCVlJhCAgGICpjPjqAVurlzb0NKpmCQBIAAB4xAwnRnFBWNUdOzpti7jlJSZQAACiglgxtio6Fhre7dikgSAAASMQ8B0ZvzFm3vEZWNLJ2Y0zjnNTCCgnIDpzDh8jhszdpzvVY6SCBCAgGEImM6MQ99IFNeMXT2Y0TCnNBOBgAoETGfGn762WzRjT69NBZaEgAAEjELAdGb88awE0Yx2u90oBWUeEICACgRMZ8ZbZsS7mPH7U2JVAEkICEDAQARMZ8abp8e5mPEHU3cZqKBMBQIQUIGA6cz4g6m7XMx48/Q4FUASAgIQMBAB05nx+1P6P9rtvN0yI95ABWUqEICACgTMZcZem93ZiY79n8xOUAEkISAAAQMRMJcZO873imYcPifRQAVlKhCAgAoEzGVGa3u3aMYRMUkqgCQEBCBgIALmMmNja5doxnvm7zVQQZkKBCCgAgFzmfHE2Q7RjGMWpaoAkhAQgICBCJjLjJVN50QzPrg0zUAFZSoQgIAKBMxlxmP1raIZxy7PUAEkISAAAQMRMJcZC09YRTOOW73fQAVlKhCAgAoEzGVGm83efr7nbPv5hpZOy5n2isa2kvqWikZuNq3CmUQICBiJgLnMaKTKMRcIQEA7AphRO7ZEhgAEwpUAZgzXypE3BCCgHQHMqB1bIkMAAuFKADOGa+XIGwIQ0I4AZtSOLZEhAIFwJYAZw7Vy5A0BCGhHADNqx5bIEIBAuBLAjOFaOfKGAAS0I4AZtWNLZAhAIFwJYMZwrRx5QwAC2hEwiBmtVmtERITFYmnhBwIQgIBiAhaLJSIiwmq1epJvhKcnQuq4YxoR/EAAAhBQj4DFYvEkuvAwo81ms1gsVqtV8f8qCAABCECgxWq1WiwWm80W3mb0lD3HIQABCGhBIDzWjFrMnJgQgAAEPBHAjJ7IcBwCEDAvAcxo3tozcwhAwBMBzOiJDMchAAHzEsCM5q19MGceFRXl72ct/v3vf7tk6CVIZGTk9ddfP2TIkIceemj27NkFBQUufV0e3nvvvZ7yGTBgwLXXXvu9733vV7/61T//+c+dO3f29PS4dOeh4QlgRsOXOCQm6EVqngzllxnFIPfcc09xcbGnyXsxoxjqO9/5zqZNmzyF4rghCWBGQ5Y15CYVfDNGRERceeWV27dvd8vCLzM6XPnss8/a7Xa30ThoPAKY0Xg1DcUZOZtx69atVT78NDc3u8zES5Dy8vLs7OxVq1bdeeedzou+K6+8MicnxyVOX1+fsxkXLFjgnE5lZWVeXt7HH388ceLEK664wjlaTEyMGIojhiSAGQ1Z1pCblLPUUlJSAsvPxyDLli0bMGCAZLS7775bHM7ZjBs2bBAbOI7k5eUNHjxYCnXNNdc0NDR4asxxIxHAjEaqZujOxUepeZ+A70FeeuklSWcRERGHDx92ieyjGfv6+lJTU51DrVy50iUUDw1JADMasqwhNynfpeYldd+DNDc3f+Mb35CMNm/ePJewvpuxr69v6NChUqgnnnjCJRQPDUkAMxqyrCE3Kd+l5iV1v4KMGDFC0tnEiRNdwvplxueff14Kdccdd7iE4qEhCWBGQ5Y15Cbll9Q8Ze9XkPHjx0s6e+ihh1xi+mXGadOmSaFuvvlml1A8NCQBzGjIsobcpPySmqfs/Qoybtw4SWcKzfiPf/xDCnX77bd7So/jRiKAGY1UzdCdi19S8zQNv4Ko+GraOdTYsWM9pcdxIxHAjEaqZujOxS+peZqG70HOnDnj/FHEuXPnusT0/dV0Xl6e82eAlixZ4hKKh4YkgBkNWdaQm5Sz1KRXpl523H7m0TmI2wbStF999VXn4Lm5udJTjh0fzVhXV3fLLbdIob75zW82Nja6hOKhIQlgRkOWNeQm5Sw1STRedtyKzzmI2waOaa9atcp5lTdy5EgRhxcz2u12q9WanZ09a9asG264wTnJVatWiaE4YkgCmNGQZQ25STlLzdk1nvbdis85iMtXDMvLy3NyctasWXPXXXc5xxw4cGBWVpaIw9mMzu097V922WXz588X43DEqAQwo1ErG1rz8iI15+8sS/udnZ3iBJyDeFKY8/GBAwd+9tlnYhyX7007dxH3r7rqqqeffrqwsNBtHA4alQBmNGplQ2tezlJzux70JV3nIKLCXI6MHDnSi858XzMOGDBgwoQJZ86c8SVD2hiGAGY0TClDeiLOUtPCjJGRkYMGDYqKinrggQdmzpx55MgR7ziczehyrZ3i4uKEhIRXX331uuuuk2x72223NTU1eY/Js0YigBmNVM3QnYvqZgxYrw5Gzmb0dK2dU6dODRs2TJLjqFGjvNyeOHTRk1lABDBjQNjo5CeBcDRjX19ffX2981XIFi5c6Oe8aR6uBDBjuFYuvPIOUzP29fV9/vnn0rLxmmuuqa+vDy/yZBsYAcwYGDd6+UcgfM3o8kb2Cy+84N/MaR2eBDBjeNYt3LIOazNmZmZKy8Yrrriiuro63PCTr98EMKPfyOgQAIGwNmNfX9+YMWMkOU6ePDkAAnQJLwKYMbzqFa7ZhrsZ09PTJTNefvnlFRUV4VoJ8vaNAGb0jROtlBEIdzP29fWNHj1akuOf//xnZTzoHeoEMGOoV8gY+RnAjGlpaZIZL7vssuPHjxujNMzCLQHM6BYLB1UmYAAz9vX1jRo1SpLjn/70J5UZES6UCGDGUKqGcXMxhhmd77AaGRlZVFRk3IqZfWaY0exnQHDmbwwzuny2cdy4ccGhxyjBJ4AZg8+cESEAgVAngBlDvULkBwEIBJ8AZgw+c0aEAARCnQBmDPUKkR8EIBB8Apgx+MwZEQIQCHUCmDHUK0R+EIBA8AlgxuAzZ0QIQCDUCWDGUK8Q+UEAAsEngBmDz5wRIQCBUCeAGUO9QuQHAQgEnwBmDD5zRoQABEKdAGYM9QqRHwQgEHwCmDH4zBkRAhAIdQKYMdQrRH4QgEDwCWDG4DNnRAhAINQJYMZQrxD5QQACwSeAGYPPnBEhAIFQJ4AZQ71C5AcBCASfAGYMPnNGhAAEQp3A/wfkpn/kJ5SXBQAAAABJRU5ErkJggg==;" parent="1" vertex="1">
                    <mxGeometry x="694.82" y="260" width="77.95" height="77.95" as="geometry"/>
                </mxCell>
                <mxCell id="43" value="$$[p_1, p_2, p_3]$$" style="rounded=0;whiteSpace=wrap;html=1;" parent="1" vertex="1">
                    <mxGeometry x="271" y="65" width="88.13" height="20" as="geometry"/>
                </mxCell>
                <mxCell id="46" value="$$[p_1, p_2, p_3]$$" style="rounded=0;whiteSpace=wrap;html=1;" parent="1" vertex="1">
                    <mxGeometry x="271" y="85" width="88.13" height="20" as="geometry"/>
                </mxCell>
                <mxCell id="47" value="$$[p_1, p_2, p_3]$$" style="rounded=0;whiteSpace=wrap;html=1;" parent="1" vertex="1">
                    <mxGeometry x="271" y="105" width="88.13" height="20" as="geometry"/>
                </mxCell>
                <mxCell id="50" value="&lt;span style=&quot;&quot;&gt;$$m_1$$&lt;/span&gt;" style="text;html=1;strokeColor=none;fillColor=#E3E3E3;align=center;verticalAlign=middle;whiteSpace=wrap;rounded=0;fontColor=#080808;labelBackgroundColor=none;" parent="1" vertex="1">
                    <mxGeometry x="359.13" y="65" width="25.87" height="20" as="geometry"/>
                </mxCell>
                <mxCell id="51" value="$$m_2$$" style="text;html=1;strokeColor=none;fillColor=#D4D4D4;align=center;verticalAlign=middle;whiteSpace=wrap;rounded=0;fontColor=#080808;" parent="1" vertex="1">
                    <mxGeometry x="359.13" y="85" width="25.87" height="20" as="geometry"/>
                </mxCell>
                <mxCell id="52" value="$$m_3$$" style="text;html=1;strokeColor=none;fillColor=#9E9E9E;align=center;verticalAlign=middle;whiteSpace=wrap;rounded=0;fontColor=#080808;" parent="1" vertex="1">
                    <mxGeometry x="359.13" y="105" width="25.87" height="20" as="geometry"/>
                </mxCell>
                <mxCell id="204" value="&lt;span style=&quot;&quot;&gt;$$c_2$$&lt;/span&gt;" style="text;html=1;strokeColor=#82b366;fillColor=#d5e8d4;align=center;verticalAlign=middle;whiteSpace=wrap;rounded=0;labelBackgroundColor=none;" parent="1" vertex="1">
                    <mxGeometry x="385" y="65" width="25.87" height="20" as="geometry"/>
                </mxCell>
                <mxCell id="205" value="&lt;span style=&quot;&quot;&gt;$$c_2$$&lt;/span&gt;" style="text;html=1;strokeColor=#82b366;fillColor=#d5e8d4;align=center;verticalAlign=middle;whiteSpace=wrap;rounded=0;labelBackgroundColor=none;" parent="1" vertex="1">
                    <mxGeometry x="385" y="85" width="25.87" height="20" as="geometry"/>
                </mxCell>
                <mxCell id="206" value="&lt;span style=&quot;&quot;&gt;$$c_1$$&lt;/span&gt;" style="text;html=1;strokeColor=none;fillColor=#B4C4B3;align=center;verticalAlign=middle;whiteSpace=wrap;rounded=0;fontColor=#080808;labelBackgroundColor=none;" parent="1" vertex="1">
                    <mxGeometry x="385" y="105" width="25.87" height="20" as="geometry"/>
                </mxCell>
                <mxCell id="299" style="edgeStyle=none;html=1;startArrow=classic;startFill=1;entryX=-0.044;entryY=0.214;entryDx=0;entryDy=0;entryPerimeter=0;exitX=1.035;exitY=0.458;exitDx=0;exitDy=0;exitPerimeter=0;" parent="1" source="207" target="297" edge="1">
                    <mxGeometry relative="1" as="geometry"/>
                </mxCell>
                <mxCell id="207" value="&lt;span style=&quot;&quot;&gt;$$c_2$$&lt;/span&gt;" style="text;html=1;strokeColor=#82b366;fillColor=#d5e8d4;align=center;verticalAlign=middle;whiteSpace=wrap;rounded=0;labelBackgroundColor=none;" parent="1" vertex="1">
                    <mxGeometry x="229.56" y="206.30000000000004" width="25.87" height="20" as="geometry"/>
                </mxCell>
                <mxCell id="300" style="edgeStyle=none;html=1;entryX=-0.028;entryY=0.854;entryDx=0;entryDy=0;startArrow=classic;startFill=1;entryPerimeter=0;" parent="1" source="208" target="297" edge="1">
                    <mxGeometry relative="1" as="geometry"/>
                </mxCell>
                <mxCell id="208" value="&lt;span style=&quot;&quot;&gt;$$c_1$$&lt;/span&gt;" style="text;html=1;strokeColor=none;fillColor=#B4C4B3;align=center;verticalAlign=middle;whiteSpace=wrap;rounded=0;fontColor=#080808;labelBackgroundColor=none;" parent="1" vertex="1">
                    <mxGeometry x="229.56" y="226.30000000000004" width="25.87" height="20" as="geometry"/>
                </mxCell>
                <mxCell id="289" value="" style="group" parent="1" vertex="1" connectable="0">
                    <mxGeometry x="440" y="10.000000000000002" width="430" height="230" as="geometry"/>
                </mxCell>
                <mxCell id="282" value="" style="rounded=1;whiteSpace=wrap;html=1;labelBackgroundColor=none;fillColor=#ffe6cc;strokeColor=#d79b00;" parent="289" vertex="1">
                    <mxGeometry width="430" height="230" as="geometry"/>
                </mxCell>
                <mxCell id="224" value="&lt;b style=&quot;font-size: 14px;&quot;&gt;&lt;u style=&quot;font-size: 14px;&quot;&gt;DNA ordering&lt;/u&gt;&lt;/b&gt;&lt;br style=&quot;font-size: 14px;&quot;&gt;Order first by most proximate DNA class `c`, then by `m`&amp;nbsp;" style="text;html=1;strokeColor=none;fillColor=none;align=left;verticalAlign=middle;whiteSpace=wrap;rounded=0;fontColor=#080808;fontSize=14;" parent="289" vertex="1">
                    <mxGeometry x="21.11" y="42.63" width="158.89" height="40" as="geometry"/>
                </mxCell>
                <mxCell id="230" value="&lt;b style=&quot;font-size: 14px;&quot;&gt;&lt;u style=&quot;font-size: 14px;&quot;&gt;DNA quantile ordering&lt;/u&gt;&lt;/b&gt;&lt;br style=&quot;font-size: 14px;&quot;&gt;Order first by&amp;nbsp;&lt;font color=&quot;#b266ff&quot; style=&quot;font-size: 14px;&quot;&gt;&lt;b style=&quot;font-size: 14px;&quot;&gt;top &lt;/b&gt;&lt;/font&gt;and &lt;font color=&quot;#0000ff&quot; style=&quot;font-size: 14px;&quot;&gt;&lt;b style=&quot;font-size: 14px;&quot;&gt;bottom blocks&lt;/b&gt;&lt;/font&gt;&lt;font color=&quot;#000000&quot; style=&quot;font-size: 14px;&quot;&gt;, then by DNA inside the blocks&lt;/font&gt;" style="text;html=1;strokeColor=none;fillColor=none;align=left;verticalAlign=middle;whiteSpace=wrap;rounded=0;fontColor=#080808;fontSize=14;" parent="289" vertex="1">
                    <mxGeometry x="210" y="40.32" width="210" height="40" as="geometry"/>
                </mxCell>
                <mxCell id="239" value="$$[p_1, p_2, p_3]$$" style="rounded=0;whiteSpace=wrap;html=1;fillColor=#f8cecc;strokeColor=#b85450;" parent="289" vertex="1">
                    <mxGeometry x="21.24000000000001" y="96.88999999999999" width="88.13" height="20" as="geometry"/>
                </mxCell>
                <mxCell id="240" value="$$[p_1, p_2, p_3]$$" style="rounded=0;whiteSpace=wrap;html=1;fillColor=#B4C4B3;strokeColor=#82b366;" parent="289" vertex="1">
                    <mxGeometry x="21.24000000000001" y="176.89" width="88.13" height="20" as="geometry"/>
                </mxCell>
                <mxCell id="241" value="$$[p_1, p_2, p_3]$$" style="rounded=0;whiteSpace=wrap;html=1;fillColor=#d5e8d4;strokeColor=#82b366;" parent="289" vertex="1">
                    <mxGeometry x="21.24000000000001" y="136.89" width="88.13" height="20" as="geometry"/>
                </mxCell>
                <mxCell id="242" value="$$[p_1, p_2, p_3]$$" style="rounded=0;whiteSpace=wrap;html=1;fillColor=#f8cecc;strokeColor=#b85450;" parent="289" vertex="1">
                    <mxGeometry x="21.11000000000001" y="157.51999999999998" width="88.13" height="20" as="geometry"/>
                </mxCell>
                <mxCell id="243" value="$$[p_1, p_2, p_3]$$" style="rounded=0;whiteSpace=wrap;html=1;fillColor=#d5e8d4;strokeColor=#82b366;" parent="289" vertex="1">
                    <mxGeometry x="21.24000000000001" y="116.88999999999999" width="88.13" height="20" as="geometry"/>
                </mxCell>
                <mxCell id="244" value="$$[p_1, p_2, p_3]$$" style="rounded=0;whiteSpace=wrap;html=1;fillColor=#B4C4B3;strokeColor=#82b366;" parent="289" vertex="1">
                    <mxGeometry x="21.24000000000001" y="196.89" width="88.13" height="20" as="geometry"/>
                </mxCell>
                <mxCell id="245" value="$$c_2$$" style="text;html=1;strokeColor=#82b366;fillColor=#d5e8d4;align=center;verticalAlign=middle;whiteSpace=wrap;rounded=0;" parent="289" vertex="1">
                    <mxGeometry x="113.63" y="96.88999999999999" width="24.73" height="20" as="geometry"/>
                </mxCell>
                <mxCell id="246" value="$$c_1$$" style="text;html=1;strokeColor=#82b366;fillColor=#B4C4B3;align=center;verticalAlign=middle;whiteSpace=wrap;rounded=0;" parent="289" vertex="1">
                    <mxGeometry x="113.63" y="196.89" width="24.73" height="20" as="geometry"/>
                </mxCell>
                <mxCell id="247" value="$$c_2$$" style="text;html=1;strokeColor=#82b366;fillColor=#d5e8d4;align=center;verticalAlign=middle;whiteSpace=wrap;rounded=0;" parent="289" vertex="1">
                    <mxGeometry x="113.63" y="136.89" width="24.73" height="20" as="geometry"/>
                </mxCell>
                <mxCell id="248" value="$$c_1$$" style="text;html=1;strokeColor=#82b366;fillColor=#B4C4B3;align=center;verticalAlign=middle;whiteSpace=wrap;rounded=0;" parent="289" vertex="1">
                    <mxGeometry x="113.63" y="176.89" width="24.73" height="20" as="geometry"/>
                </mxCell>
                <mxCell id="249" value="&lt;span style=&quot;&quot;&gt;$$m_1$$&lt;/span&gt;" style="text;html=1;strokeColor=none;fillColor=#E3E3E3;align=center;verticalAlign=middle;whiteSpace=wrap;rounded=0;fontColor=#080808;labelBackgroundColor=none;" parent="289" vertex="1">
                    <mxGeometry x="140.24" y="156.89" width="25.87" height="20" as="geometry"/>
                </mxCell>
                <mxCell id="250" value="$$m_2$$" style="text;html=1;strokeColor=none;fillColor=#D4D4D4;align=center;verticalAlign=middle;whiteSpace=wrap;rounded=0;fontColor=#080808;" parent="289" vertex="1">
                    <mxGeometry x="140.24" y="96.88999999999999" width="25.87" height="20" as="geometry"/>
                </mxCell>
                <mxCell id="251" value="$$m_3$$" style="text;html=1;strokeColor=none;fillColor=#9E9E9E;align=center;verticalAlign=middle;whiteSpace=wrap;rounded=0;fontColor=#080808;" parent="289" vertex="1">
                    <mxGeometry x="140.24" y="176.89" width="25.87" height="20" as="geometry"/>
                </mxCell>
                <mxCell id="252" value="$$m_4$$" style="text;html=1;strokeColor=none;fillColor=#787878;align=center;verticalAlign=middle;whiteSpace=wrap;rounded=0;fontColor=#FFFFFF;" parent="289" vertex="1">
                    <mxGeometry x="140.24" y="116.88999999999999" width="25.87" height="20" as="geometry"/>
                </mxCell>
                <mxCell id="253" value="$$m_5$$" style="text;html=1;strokeColor=none;fillColor=#5E5E5E;align=center;verticalAlign=middle;whiteSpace=wrap;rounded=0;fontColor=#FFFFFF;" parent="289" vertex="1">
                    <mxGeometry x="140.24" y="136.89" width="25.87" height="20" as="geometry"/>
                </mxCell>
                <mxCell id="254" value="$$m_6$$" style="text;html=1;strokeColor=none;fillColor=#303030;align=center;verticalAlign=middle;whiteSpace=wrap;rounded=0;fontColor=#FFFFFF;" parent="289" vertex="1">
                    <mxGeometry x="140.24" y="196.89" width="25.87" height="20" as="geometry"/>
                </mxCell>
                <mxCell id="255" value="$$c_2$$" style="text;html=1;strokeColor=#82b366;fillColor=#d5e8d4;align=center;verticalAlign=middle;whiteSpace=wrap;rounded=0;" parent="289" vertex="1">
                    <mxGeometry x="113.63" y="116.88999999999999" width="24.73" height="20" as="geometry"/>
                </mxCell>
                <mxCell id="256" value="$$c_1$$" style="text;html=1;strokeColor=#82b366;fillColor=#B4C4B3;align=center;verticalAlign=middle;whiteSpace=wrap;rounded=0;" parent="289" vertex="1">
                    <mxGeometry x="113.63" y="156.89" width="24.73" height="20" as="geometry"/>
                </mxCell>
                <mxCell id="258" value="$$[p_1, p_2, p_3]$$" style="rounded=0;whiteSpace=wrap;html=1;fillColor=#f8cecc;strokeColor=#b85450;" parent="289" vertex="1">
                    <mxGeometry x="216.24" y="97.51999999999998" width="88.13" height="20" as="geometry"/>
                </mxCell>
                <mxCell id="259" value="$$[p_1, p_2, p_3]$$" style="rounded=0;whiteSpace=wrap;html=1;fillColor=#B4C4B3;strokeColor=#82b366;" parent="289" vertex="1">
                    <mxGeometry x="216.24" y="137.51999999999998" width="88.13" height="20" as="geometry"/>
                </mxCell>
                <mxCell id="260" value="$$[p_1, p_2, p_3]$$" style="rounded=0;whiteSpace=wrap;html=1;fillColor=#d5e8d4;strokeColor=#82b366;" parent="289" vertex="1">
                    <mxGeometry x="216.24" y="157.51999999999998" width="88.13" height="20" as="geometry"/>
                </mxCell>
                <mxCell id="261" value="$$[p_1, p_2, p_3]$$" style="rounded=0;whiteSpace=wrap;html=1;fillColor=#f8cecc;strokeColor=#b85450;" parent="289" vertex="1">
                    <mxGeometry x="216.24" y="117.51999999999998" width="88.13" height="20" as="geometry"/>
                </mxCell>
                <mxCell id="262" value="$$[p_1, p_2, p_3]$$" style="rounded=0;whiteSpace=wrap;html=1;fillColor=#d5e8d4;strokeColor=#82b366;" parent="289" vertex="1">
                    <mxGeometry x="216.24" y="177.51999999999998" width="88.13" height="20" as="geometry"/>
                </mxCell>
                <mxCell id="263" value="$$[p_1, p_2, p_3]$$" style="rounded=0;whiteSpace=wrap;html=1;fillColor=#B4C4B3;strokeColor=#82b366;" parent="289" vertex="1">
                    <mxGeometry x="216.24" y="197.51999999999998" width="88.13" height="20" as="geometry"/>
                </mxCell>
                <mxCell id="264" value="$$c_2$$" style="text;html=1;strokeColor=#82b366;fillColor=#d5e8d4;align=center;verticalAlign=middle;whiteSpace=wrap;rounded=0;" parent="289" vertex="1">
                    <mxGeometry x="316.24" y="97.51999999999998" width="24.73" height="20" as="geometry"/>
                </mxCell>
                <mxCell id="265" value="$$c_1$$" style="text;html=1;strokeColor=#82b366;fillColor=#B4C4B3;align=center;verticalAlign=middle;whiteSpace=wrap;rounded=0;" parent="289" vertex="1">
                    <mxGeometry x="316.24" y="197.51999999999998" width="24.73" height="20" as="geometry"/>
                </mxCell>
                <mxCell id="266" value="$$c_2$$" style="text;html=1;strokeColor=#82b366;fillColor=#d5e8d4;align=center;verticalAlign=middle;whiteSpace=wrap;rounded=0;" parent="289" vertex="1">
                    <mxGeometry x="316.24" y="156.89" width="24.73" height="20" as="geometry"/>
                </mxCell>
                <mxCell id="267" value="$$c_1$$" style="text;html=1;strokeColor=#82b366;fillColor=#B4C4B3;align=center;verticalAlign=middle;whiteSpace=wrap;rounded=0;" parent="289" vertex="1">
                    <mxGeometry x="316.24" y="137.51999999999998" width="24.73" height="20" as="geometry"/>
                </mxCell>
                <mxCell id="268" value="&lt;span style=&quot;&quot;&gt;$$m_1$$&lt;/span&gt;" style="text;html=1;strokeColor=none;fillColor=#E3E3E3;align=center;verticalAlign=middle;whiteSpace=wrap;rounded=0;fontColor=#080808;labelBackgroundColor=none;" parent="289" vertex="1">
                    <mxGeometry x="346.24" y="117.51999999999998" width="25.87" height="20" as="geometry"/>
                </mxCell>
                <mxCell id="269" value="$$m_2$$" style="text;html=1;strokeColor=none;fillColor=#D4D4D4;align=center;verticalAlign=middle;whiteSpace=wrap;rounded=0;fontColor=#080808;" parent="289" vertex="1">
                    <mxGeometry x="346.24" y="97.51999999999998" width="25.87" height="20" as="geometry"/>
                </mxCell>
                <mxCell id="270" value="$$m_3$$" style="text;html=1;strokeColor=none;fillColor=#9E9E9E;align=center;verticalAlign=middle;whiteSpace=wrap;rounded=0;fontColor=#080808;" parent="289" vertex="1">
                    <mxGeometry x="346.24" y="137.51999999999998" width="25.87" height="20" as="geometry"/>
                </mxCell>
                <mxCell id="271" value="$$m_4$$" style="text;html=1;strokeColor=none;fillColor=#787878;align=center;verticalAlign=middle;whiteSpace=wrap;rounded=0;fontColor=#FFFFFF;" parent="289" vertex="1">
                    <mxGeometry x="346.24" y="157.51999999999998" width="25.87" height="20" as="geometry"/>
                </mxCell>
                <mxCell id="272" value="$$m_5$$" style="text;html=1;strokeColor=none;fillColor=#5E5E5E;align=center;verticalAlign=middle;whiteSpace=wrap;rounded=0;fontColor=#FFFFFF;" parent="289" vertex="1">
                    <mxGeometry x="346.24" y="177.51999999999998" width="25.87" height="20" as="geometry"/>
                </mxCell>
                <mxCell id="273" value="$$m_6$$" style="text;html=1;strokeColor=none;fillColor=#303030;align=center;verticalAlign=middle;whiteSpace=wrap;rounded=0;fontColor=#FFFFFF;" parent="289" vertex="1">
                    <mxGeometry x="346.24" y="197.51999999999998" width="25.87" height="20" as="geometry"/>
                </mxCell>
                <mxCell id="274" value="$$c_2$$" style="text;html=1;strokeColor=#82b366;fillColor=#d5e8d4;align=center;verticalAlign=middle;whiteSpace=wrap;rounded=0;" parent="289" vertex="1">
                    <mxGeometry x="316.24" y="176.89" width="24.73" height="20" as="geometry"/>
                </mxCell>
                <mxCell id="275" value="$$c_1$$" style="text;html=1;strokeColor=#82b366;fillColor=#B4C4B3;align=center;verticalAlign=middle;whiteSpace=wrap;rounded=0;" parent="289" vertex="1">
                    <mxGeometry x="316.24" y="117.51999999999998" width="24.73" height="20" as="geometry"/>
                </mxCell>
                <mxCell id="276" value="" style="endArrow=none;html=1;strokeWidth=3;fontColor=#CC0000;fillColor=#e1d5e7;strokeColor=#9673a6;" parent="289" edge="1">
                    <mxGeometry width="50" height="50" relative="1" as="geometry">
                        <mxPoint x="176.24" y="116.63" as="sourcePoint"/>
                        <mxPoint x="176.24" y="96.88999999999999" as="targetPoint"/>
                    </mxGeometry>
                </mxCell>
                <mxCell id="277" value="" style="endArrow=none;html=1;strokeWidth=3;fontColor=#CC0000;fillColor=#1ba1e2;strokeColor=#006EAF;" parent="289" edge="1">
                    <mxGeometry width="50" height="50" relative="1" as="geometry">
                        <mxPoint x="176.24" y="155.63" as="sourcePoint"/>
                        <mxPoint x="176.24" y="116.88999999999999" as="targetPoint"/>
                    </mxGeometry>
                </mxCell>
                <mxCell id="278" value="" style="endArrow=none;html=1;strokeWidth=3;fontColor=#CC0000;fillColor=#e1d5e7;strokeColor=#9673a6;" parent="289" edge="1">
                    <mxGeometry width="50" height="50" relative="1" as="geometry">
                        <mxPoint x="176.24" y="195.63" as="sourcePoint"/>
                        <mxPoint x="176.24" y="156.89" as="targetPoint"/>
                    </mxGeometry>
                </mxCell>
                <mxCell id="279" value="" style="endArrow=none;html=1;strokeWidth=3;fontColor=#CC0000;fillColor=#1ba1e2;strokeColor=#006EAF;" parent="289" edge="1">
                    <mxGeometry width="50" height="50" relative="1" as="geometry">
                        <mxPoint x="176.24" y="215.63" as="sourcePoint"/>
                        <mxPoint x="176.24" y="196.89" as="targetPoint"/>
                    </mxGeometry>
                </mxCell>
                <mxCell id="280" value="" style="endArrow=none;html=1;strokeWidth=3;fontColor=#CC0000;fillColor=#e1d5e7;strokeColor=#9673a6;" parent="289" edge="1">
                    <mxGeometry width="50" height="50" relative="1" as="geometry">
                        <mxPoint x="311.0799999999999" y="157.51999999999998" as="sourcePoint"/>
                        <mxPoint x="311.0799999999999" y="97.51999999999998" as="targetPoint"/>
                    </mxGeometry>
                </mxCell>
                <mxCell id="281" value="" style="endArrow=none;html=1;strokeWidth=3;fontColor=#CC0000;fillColor=#1ba1e2;strokeColor=#006EAF;" parent="289" edge="1">
                    <mxGeometry width="50" height="50" relative="1" as="geometry">
                        <mxPoint x="311.0799999999999" y="217.51999999999998" as="sourcePoint"/>
                        <mxPoint x="311.0799999999999" y="157.51999999999998" as="targetPoint"/>
                    </mxGeometry>
                </mxCell>
                <mxCell id="283" value="Proposed re-ordering methods" style="text;html=1;strokeColor=none;fillColor=none;align=center;verticalAlign=middle;whiteSpace=wrap;rounded=0;labelBackgroundColor=none;fontColor=#000000;fontStyle=5;fontSize=15;" parent="289" vertex="1">
                    <mxGeometry x="6.62" width="253.38" height="30" as="geometry"/>
                </mxCell>
                <mxCell id="291" value="" style="endArrow=classic;html=1;fontColor=#080808;strokeWidth=3;" parent="1" edge="1">
                    <mxGeometry width="50" height="50" relative="1" as="geometry">
                        <mxPoint x="180" y="222.25000000000009" as="sourcePoint"/>
                        <mxPoint x="200" y="221.82000000000002" as="targetPoint"/>
                        <Array as="points">
                            <mxPoint x="200" y="222.25"/>
                        </Array>
                    </mxGeometry>
                </mxCell>
                <mxCell id="293" value="" style="endArrow=classic;html=1;fontColor=#080808;strokeWidth=3;" parent="1" edge="1">
                    <mxGeometry width="50" height="50" relative="1" as="geometry">
                        <mxPoint x="235" y="95.21000000000006" as="sourcePoint"/>
                        <mxPoint x="255" y="94.78" as="targetPoint"/>
                        <Array as="points">
                            <mxPoint x="255" y="95.20999999999998"/>
                        </Array>
                    </mxGeometry>
                </mxCell>
                <mxCell id="294" value="" style="endArrow=classic;html=1;fontColor=#080808;strokeWidth=3;" parent="1" edge="1">
                    <mxGeometry width="50" height="50" relative="1" as="geometry">
                        <mxPoint x="420.00000000000006" y="95.81000000000006" as="sourcePoint"/>
                        <mxPoint x="440.00000000000006" y="95.38" as="targetPoint"/>
                        <Array as="points">
                            <mxPoint x="440" y="95.80999999999997"/>
                        </Array>
                    </mxGeometry>
                </mxCell>
                <mxCell id="295" value="" style="endArrow=classic;html=1;fontColor=#080808;strokeWidth=3;" parent="1" edge="1">
                    <mxGeometry width="50" height="50" relative="1" as="geometry">
                        <mxPoint x="370" y="210" as="sourcePoint"/>
                        <mxPoint x="435" y="206.29999999999998" as="targetPoint"/>
                        <Array as="points">
                            <mxPoint x="435" y="206.72999999999996"/>
                        </Array>
                    </mxGeometry>
                </mxCell>
                <mxCell id="297" value="&lt;span style=&quot;&quot;&gt;$$c_3$$&lt;/span&gt;" style="text;html=1;strokeColor=#b85450;fillColor=#f8cecc;align=center;verticalAlign=middle;whiteSpace=wrap;rounded=0;labelBackgroundColor=none;" parent="1" vertex="1">
                    <mxGeometry x="317.5" y="210.5" width="25.87" height="20" as="geometry"/>
                </mxCell>
                <mxCell id="298" value="$$d_{32}$$" style="text;html=1;strokeColor=none;fillColor=none;align=center;verticalAlign=middle;whiteSpace=wrap;rounded=0;" parent="1" vertex="1">
                    <mxGeometry x="270" y="198" width="34.5" height="11.7" as="geometry"/>
                </mxCell>
                <mxCell id="301" value="$$d_{31}$$" style="text;html=1;strokeColor=none;fillColor=none;align=center;verticalAlign=middle;whiteSpace=wrap;rounded=0;" parent="1" vertex="1">
                    <mxGeometry x="270" y="235" width="34.5" height="11.7" as="geometry"/>
                </mxCell>
                <mxCell id="302" value="" style="endArrow=classic;html=1;fontColor=#080808;strokeWidth=3;exitX=0.5;exitY=1;exitDx=0;exitDy=0;entryX=0.5;entryY=0;entryDx=0;entryDy=0;" parent="1" edge="1" target="54" source="65">
                    <mxGeometry width="50" height="50" relative="1" as="geometry">
                        <mxPoint x="20.00000000000001" y="162.80000000000004" as="sourcePoint"/>
                        <mxPoint x="40.000000000000014" y="162.36999999999998" as="targetPoint"/>
                        <Array as="points"/>
                    </mxGeometry>
                </mxCell>
            </root>
        </mxGraphModel>
    </diagram>
</mxfile>